<svg xmlns="http://www.w3.org/2000/svg" xmlns:xlink="http://www.w3.org/1999/xlink" width="500" zoomAndPan="magnify" viewBox="0 0 375 374.999991" height="500" preserveAspectRatio="xMidYMid meet" version="1.0"><defs><g/><clipPath id="f1102df0aa"><path d="M 27.050781 37.5 L 360.800781 37.5 L 360.800781 354 L 27.050781 354 Z M 27.050781 37.5 " clip-rule="nonzero"/></clipPath><clipPath id="e0a6ec84f8"><path d="M 27.050781 112.5 L 27.050781 279.285156 C 27.050781 320.707031 60.628906 354.285156 102.050781 354.285156 L 285.675781 354.285156 C 327.097656 354.285156 360.675781 320.707031 360.675781 279.285156 L 360.675781 112.5 C 360.675781 71.078125 327.097656 37.5 285.675781 37.5 L 102.050781 37.5 C 60.628906 37.5 27.050781 71.078125 27.050781 112.5 Z M 27.050781 112.5 " clip-rule="nonzero"/></clipPath><clipPath id="5d8e0a7580"><path d="M 27.050781 115 L 157 115 L 157 354 L 27.050781 354 Z M 27.050781 115 " clip-rule="nonzero"/></clipPath><clipPath id="b49a1c5f0e"><path d="M 27.050781 112.5 L 27.050781 279.285156 C 27.050781 320.707031 60.628906 354.285156 102.050781 354.285156 L 285.675781 354.285156 C 327.097656 354.285156 360.675781 320.707031 360.675781 279.285156 L 360.675781 112.5 C 360.675781 71.078125 327.097656 37.5 285.675781 37.5 L 102.050781 37.5 C 60.628906 37.5 27.050781 71.078125 27.050781 112.5 Z M 27.050781 112.5 " clip-rule="nonzero"/></clipPath><clipPath id="9dc3c1d02f"><path d="M 408.265625 277.246094 C 408.265625 409.664062 300.917969 517.011719 168.496094 517.011719 C 36.070312 517.011719 -71.277344 409.664062 -71.277344 277.246094 C -71.277344 144.816406 36.070312 37.46875 168.496094 37.46875 C 300.917969 37.46875 408.265625 144.816406 408.265625 277.246094 Z M 408.265625 277.246094 " clip-rule="nonzero"/></clipPath><clipPath id="f261964d30"><path d="M 188 90 L 360.800781 90 L 360.800781 354 L 188 354 Z M 188 90 " clip-rule="nonzero"/></clipPath><clipPath id="e40567d321"><path d="M 27.050781 112.5 L 27.050781 279.285156 C 27.050781 320.707031 60.628906 354.285156 102.050781 354.285156 L 285.675781 354.285156 C 327.097656 354.285156 360.675781 320.707031 360.675781 279.285156 L 360.675781 112.5 C 360.675781 71.078125 327.097656 37.5 285.675781 37.5 L 102.050781 37.5 C 60.628906 37.5 27.050781 71.078125 27.050781 112.5 Z M 27.050781 112.5 " clip-rule="nonzero"/></clipPath><clipPath id="80d63075e4"><path d="M 408.265625 277.246094 C 408.265625 409.664062 300.917969 517.011719 168.496094 517.011719 C 36.070312 517.011719 -71.277344 409.664062 -71.277344 277.246094 C -71.277344 144.816406 36.070312 37.46875 168.496094 37.46875 C 300.917969 37.46875 408.265625 144.816406 408.265625 277.246094 Z M 408.265625 277.246094 " clip-rule="nonzero"/></clipPath><clipPath id="236966ba56"><path d="M 341.675781 353 L 360.800781 353 L 360.800781 354 L 341.675781 354 Z M 341.675781 353 " clip-rule="nonzero"/></clipPath><clipPath id="47673e0dbe"><path d="M 27.050781 112.5 L 27.050781 279.285156 C 27.050781 320.707031 60.628906 354.285156 102.050781 354.285156 L 285.675781 354.285156 C 327.097656 354.285156 360.675781 320.707031 360.675781 279.285156 L 360.675781 112.5 C 360.675781 71.078125 327.097656 37.5 285.675781 37.5 L 102.050781 37.5 C 60.628906 37.5 27.050781 71.078125 27.050781 112.5 Z M 27.050781 112.5 " clip-rule="nonzero"/></clipPath><clipPath id="ee83469d2b"><path d="M 408.265625 277.246094 C 408.265625 409.664062 300.917969 517.011719 168.496094 517.011719 C 36.070312 517.011719 -71.277344 409.664062 -71.277344 277.246094 C -71.277344 144.816406 36.070312 37.46875 168.496094 37.46875 C 300.917969 37.46875 408.265625 144.816406 408.265625 277.246094 Z M 408.265625 277.246094 " clip-rule="nonzero"/></clipPath><clipPath id="7154b9ce43"><path d="M 283.738281 135 L 352.738281 135 L 352.738281 217 L 283.738281 217 Z M 283.738281 135 " clip-rule="nonzero"/></clipPath><clipPath id="05750782ce"><path d="M 309.445312 138.398438 L 357.800781 138.398438 L 357.800781 183.953125 L 309.445312 183.953125 Z M 309.445312 138.398438 " clip-rule="nonzero"/></clipPath><clipPath id="5cbdb8d278"><path d="M 326.773438 153.675781 C 339.523438 147.75 340.273438 145.648438 341.324219 144.976562 C 341.925781 144.601562 342.449219 144.449219 343.050781 144.523438 C 343.574219 144.601562 344.25 144.898438 344.625 145.351562 C 345 145.875 345.300781 146.699219 345.148438 147.601562 C 344.773438 149.625 341.476562 153.75 339 156.074219 C 336.675781 158.324219 332.773438 161.25 330.824219 161.550781 C 329.851562 161.625 329.023438 161.324219 328.5 160.800781 C 327.976562 160.199219 327.601562 158.925781 328.050781 157.875 C 328.726562 156.148438 332.851562 154.648438 335.324219 152.476562 C 338.25 149.851562 342.226562 143.925781 344.175781 142.949219 C 344.925781 142.574219 345.449219 142.574219 346.050781 142.800781 C 346.726562 143.101562 347.851562 144.300781 347.925781 145.125 C 347.925781 145.875 346.949219 147.675781 346.425781 147.675781 C 345.75 147.601562 343.875 143.550781 344.25 143.023438 C 344.625 142.648438 346.574219 142.949219 347.175781 143.550781 C 347.773438 144.074219 348.074219 145.273438 347.773438 146.398438 C 347.101562 148.648438 341.699219 153.75 339.300781 154.949219 C 337.949219 155.625 336.449219 155.851562 335.699219 155.398438 C 334.949219 155.023438 334.425781 153.976562 334.5 152.851562 C 334.574219 150.523438 338.25 144.375 340.050781 142.800781 C 340.949219 141.976562 342 141.601562 342.75 141.75 C 343.5 141.898438 344.324219 142.726562 344.550781 143.324219 C 344.851562 143.851562 344.925781 144.375 344.550781 145.125 C 343.5 147.601562 334.199219 156.300781 331.425781 157.648438 C 330.449219 158.175781 329.851562 158.324219 329.175781 158.101562 C 328.5 157.949219 327.75 157.125 327.523438 156.523438 C 327.300781 156 327.375 155.398438 327.601562 154.726562 C 327.898438 153.824219 328.574219 153 329.625 151.800781 C 331.574219 149.625 337.273438 144.074219 339.300781 143.324219 C 340.050781 143.023438 340.574219 143.101562 341.101562 143.324219 C 341.625 143.476562 342.226562 143.925781 342.449219 144.449219 C 342.75 145.125 342.75 146.25 342.148438 147.300781 C 340.875 149.476562 333.75 154.199219 331.351562 154.800781 C 330.375 155.023438 329.625 154.949219 329.023438 154.5 C 328.425781 154.050781 327.75 153 327.976562 151.875 C 328.648438 148.949219 339 139.425781 342.375 138.601562 C 343.800781 138.226562 345.226562 138.898438 345.824219 139.574219 C 346.425781 140.101562 346.5 140.925781 346.5 141.976562 C 346.5 143.925781 345.300781 147.523438 344.476562 150.226562 C 343.574219 152.851562 342.300781 157.800781 341.398438 157.800781 C 340.800781 157.875 339.601562 155.925781 339.75 155.023438 C 339.824219 154.125 341.023438 153.523438 342.148438 152.476562 C 344.550781 150.300781 351.148438 143.773438 353.773438 143.101562 C 354.898438 142.800781 355.949219 143.023438 356.476562 143.476562 C 356.925781 143.773438 357.226562 144.449219 357.226562 144.976562 C 357.300781 145.5 357.226562 145.949219 356.773438 146.625 C 355.726562 148.273438 350.773438 151.199219 347.925781 153.824219 C 344.773438 156.675781 340.726562 161.925781 338.773438 163.050781 C 338.101562 163.5 337.726562 163.574219 337.199219 163.574219 C 336.601562 163.5 335.925781 163.273438 335.625 162.824219 C 335.175781 162.300781 334.800781 161.175781 335.175781 160.125 C 336 157.949219 342.824219 152.773438 344.851562 151.949219 C 345.601562 151.648438 346.125 151.648438 346.648438 151.800781 C 347.175781 151.949219 347.773438 152.398438 348.074219 152.925781 C 348.375 153.449219 348.449219 154.199219 348.226562 155.175781 C 347.625 157.726562 342.898438 167.398438 340.949219 167.550781 C 339.976562 167.625 338.476562 165.976562 338.476562 164.773438 C 338.476562 162.375 345.300781 156.375 347.773438 154.425781 C 349.125 153.375 350.324219 152.476562 351.226562 152.550781 C 351.898438 152.550781 352.425781 153.074219 352.726562 153.523438 C 353.023438 153.976562 353.25 154.648438 353.175781 155.25 C 353.101562 155.773438 352.875 156.300781 352.425781 156.824219 C 351.523438 157.726562 349.425781 158.324219 347.851562 159.449219 C 345.898438 160.875 343.351562 164.398438 341.550781 164.925781 C 340.5 165.300781 339.375 165.226562 338.773438 164.699219 C 338.175781 164.25 337.800781 163.199219 338.023438 162 C 338.324219 159.300781 346.5 150.675781 345.75 149.175781 C 345.375 148.425781 343.273438 149.25 342.675781 148.726562 C 342.074219 148.273438 341.925781 147.148438 342 146.476562 C 342 145.875 342.300781 145.199219 342.75 144.824219 C 343.273438 144.375 344.398438 144 345.074219 144.226562 C 345.824219 144.375 347.101562 146.25 347.023438 146.324219 C 346.949219 146.398438 344.175781 144.675781 344.25 144.449219 C 344.324219 144.226562 345.601562 144.375 346.574219 144.523438 C 348.148438 144.898438 351.226562 146.101562 353.023438 147 C 354.601562 147.824219 356.175781 148.726562 356.925781 149.625 C 357.375 150.148438 357.75 150.675781 357.675781 151.273438 C 357.675781 151.949219 357 153.375 356.25 153.675781 C 355.574219 154.050781 353.625 153.675781 353.476562 153.226562 C 353.25 152.625 356.175781 149.550781 356.925781 149.699219 C 357.300781 149.773438 357.601562 150.75 357.675781 151.273438 C 357.675781 151.875 357.449219 152.550781 357.148438 153 C 356.773438 153.449219 356.175781 153.824219 355.648438 153.976562 C 355.125 154.050781 354.601562 153.976562 353.851562 153.675781 C 352.574219 153 350.25 150.148438 348.75 149.25 C 347.773438 148.648438 346.199219 148.648438 346.050781 148.125 C 345.976562 147.601562 347.175781 146.25 347.773438 146.324219 C 348.75 146.476562 351.601562 152.101562 351.074219 152.925781 C 350.851562 153.375 349.5 153.226562 348.75 153 C 348 152.625 347.699219 151.351562 346.648438 150.75 C 345.300781 149.925781 341.699219 150 340.648438 149.175781 C 340.125 148.726562 339.898438 148.125 339.824219 147.523438 C 339.824219 146.773438 340.273438 145.726562 340.726562 145.273438 C 341.175781 144.824219 341.925781 144.523438 342.523438 144.601562 C 343.273438 144.75 344.175781 146.023438 344.851562 146.773438 C 345.449219 147.601562 346.125 148.351562 346.351562 149.324219 C 346.574219 150.300781 346.425781 151.800781 345.976562 152.625 C 345.523438 153.449219 344.925781 153.976562 343.875 154.351562 C 341.699219 155.175781 333.976562 153.226562 332.851562 154.726562 C 332.101562 155.773438 333.300781 158.324219 334.351562 159.976562 C 335.550781 161.925781 339.824219 163.648438 340.425781 165.226562 C 340.800781 166.050781 340.5 167.023438 340.199219 167.625 C 339.898438 168.148438 339.226562 168.523438 338.699219 168.675781 C 338.175781 168.824219 337.726562 168.75 336.898438 168.523438 C 334.875 167.925781 328.875 165.074219 327.074219 163.425781 C 326.175781 162.675781 325.574219 161.925781 325.425781 161.101562 C 325.351562 160.351562 325.726562 159.300781 326.175781 158.773438 C 326.550781 158.324219 327.300781 158.023438 327.824219 158.023438 C 328.425781 157.949219 328.949219 158.101562 329.625 158.550781 C 331.351562 159.675781 337.125 165 336.976562 166.726562 C 336.898438 167.550781 335.773438 168.449219 334.875 168.449219 C 333 168.449219 327.074219 163.726562 326.773438 162 C 326.550781 161.101562 327.375 159.75 328.050781 159.675781 C 329.550781 159.601562 334.800781 167.476562 335.699219 169.726562 C 336.074219 170.699219 336.148438 171.449219 335.851562 172.125 C 335.550781 172.800781 334.648438 173.476562 333.976562 173.625 C 333.375 173.773438 332.925781 173.699219 332.175781 173.324219 C 330.074219 172.351562 323.324219 167.398438 322.199219 165.148438 C 321.675781 164.023438 321.824219 162.898438 322.125 162.148438 C 322.425781 161.625 323.101562 161.25 323.625 161.101562 C 324.226562 160.949219 324.824219 160.949219 325.5 161.25 C 326.625 161.773438 328.273438 163.5 329.398438 164.925781 C 330.675781 166.351562 332.398438 168.375 332.699219 169.800781 C 332.925781 170.699219 332.773438 171.601562 332.398438 172.199219 C 331.949219 172.800781 331.199219 173.324219 330.226562 173.25 C 327.675781 173.175781 318.898438 166.875 317.101562 165.074219 C 316.5 164.398438 316.273438 164.101562 316.273438 163.5 C 316.199219 162.824219 316.574219 161.773438 317.023438 161.25 C 317.476562 160.875 318.148438 160.648438 318.675781 160.574219 C 319.273438 160.574219 319.648438 160.800781 320.398438 161.175781 C 322.425781 162.375 327.898438 167.476562 330.300781 170.101562 C 331.949219 171.824219 333.75 173.476562 333.976562 174.898438 C 334.199219 175.875 333.898438 177.148438 333.300781 177.601562 C 332.699219 178.125 331.574219 178.273438 330.523438 177.898438 C 328.273438 177.226562 321.75 172.199219 321.75 170.699219 C 321.75 170.101562 323.023438 169.273438 323.625 169.351562 C 324.300781 169.5 325.125 170.925781 325.648438 171.898438 C 326.175781 173.023438 327 174.75 326.699219 175.726562 C 326.398438 176.625 325.199219 177.523438 324.074219 177.601562 C 322.050781 177.75 315.523438 174.375 315.375 172.875 C 315.226562 171.898438 317.101562 170.023438 318.375 170.101562 C 320.773438 170.101562 327.449219 178.050781 328.425781 180.148438 C 328.800781 180.898438 328.800781 181.351562 328.574219 181.949219 C 328.351562 182.550781 327.675781 183.375 327 183.601562 C 326.324219 183.824219 325.648438 183.675781 324.675781 183.300781 C 322.726562 182.550781 316.875 177.226562 316.351562 177.675781 C 316.050781 177.898438 317.550781 179.550781 317.476562 180.375 C 317.398438 181.125 316.949219 182.101562 316.351562 182.476562 C 315.75 182.851562 314.625 183 313.949219 182.699219 C 313.273438 182.476562 312.375 181.726562 312.375 180.898438 C 312.375 179.324219 317.398438 173.476562 318.523438 173.699219 C 319.199219 173.773438 320.023438 176.023438 319.726562 176.476562 C 319.351562 176.925781 317.550781 176.175781 316.648438 176.550781 C 315.75 176.851562 314.25 178.351562 314.324219 178.425781 C 314.398438 178.574219 315.75 178.125 316.425781 177.449219 C 317.625 176.398438 320.175781 171.824219 319.875 171.523438 C 319.648438 171.375 317.851562 172.425781 317.476562 173.175781 C 317.101562 173.851562 317.175781 174.898438 317.550781 175.574219 C 317.851562 176.25 319.199219 176.476562 319.5 177.148438 C 319.800781 177.75 319.648438 178.949219 319.273438 179.550781 C 318.824219 180.148438 317.773438 180.75 317.101562 180.75 C 316.351562 180.75 315.300781 180.226562 314.925781 179.625 C 314.476562 178.875 314.550781 177.148438 315 176.476562 C 315.449219 175.875 316.574219 175.351562 317.324219 175.5 C 318.148438 175.648438 319.5 176.851562 319.648438 177.675781 C 319.800781 178.5 318.824219 180.074219 318.148438 180.523438 C 317.699219 180.824219 317.175781 180.824219 316.5 180.675781 C 315.449219 180.449219 313.5 179.25 312.824219 178.050781 C 312.074219 176.773438 312.148438 174.675781 312.300781 173.023438 C 312.523438 171.449219 313.351562 169.425781 314.101562 168.375 C 314.625 167.550781 315.074219 167.175781 315.898438 166.726562 C 317.175781 166.199219 319.875 165.675781 321.226562 165.976562 C 322.199219 166.199219 323.023438 166.949219 323.625 167.699219 C 324.226562 168.449219 324.601562 169.5 324.75 170.398438 C 324.898438 171.375 324.898438 172.351562 324.601562 173.476562 C 324.226562 174.976562 323.324219 177.148438 322.125 178.648438 C 321 180.226562 319.125 182.023438 317.625 182.773438 C 316.425781 183.300781 315.148438 183.300781 314.101562 183.226562 C 313.125 183.148438 312.148438 182.851562 311.476562 182.324219 C 310.800781 181.875 310.273438 181.050781 309.898438 180.375 C 309.601562 179.625 309.449219 178.648438 309.449219 177.824219 C 309.523438 177 309.898438 176.175781 310.351562 175.425781 C 310.800781 174.675781 311.398438 174 312.300781 173.324219 C 313.574219 172.5 316.125 171.449219 317.550781 171.226562 C 318.449219 171.074219 319.199219 171.226562 319.949219 171.449219 C 320.699219 171.601562 321.675781 171.75 322.125 172.425781 C 322.726562 173.25 323.023438 175.199219 322.574219 176.550781 C 322.050781 178.273438 319.648438 180.300781 318.375 181.351562 C 317.550781 182.023438 316.351562 182.851562 316.125 182.699219 C 315.976562 182.550781 317.550781 180.375 317.476562 180.375 C 317.398438 180.300781 316.5 182.476562 315.75 182.699219 C 315 183 313.5 182.625 312.976562 182.023438 C 312.300781 181.273438 312.300781 179.773438 312.375 178.5 C 312.523438 176.851562 312.976562 173.851562 314.175781 172.949219 C 315.074219 172.199219 316.574219 172.351562 318.148438 172.800781 C 320.773438 173.550781 326.773438 177.898438 328.050781 179.625 C 328.574219 180.300781 328.726562 180.75 328.648438 181.273438 C 328.648438 181.875 328.425781 182.550781 327.976562 183 C 327.523438 183.449219 326.550781 183.824219 325.800781 183.75 C 324.898438 183.675781 324.148438 183 323.101562 182.25 C 321.300781 180.824219 317.925781 177.675781 316.351562 175.574219 C 315.148438 174 313.648438 172.273438 313.800781 171 C 313.949219 169.875 315.148438 168.449219 316.273438 168.300781 C 318.226562 168.074219 324.75 172.273438 324.601562 173.398438 C 324.601562 174 322.351562 174.976562 321.449219 174.675781 C 320.25 174.226562 318.601562 170.851562 318.523438 169.351562 C 318.523438 168.300781 319.199219 167.175781 319.949219 166.574219 C 320.550781 166.050781 321.449219 165.675781 322.574219 165.824219 C 324.601562 166.125 328.800781 169.425781 330.75 171.074219 C 332.101562 172.199219 333.226562 173.324219 333.75 174.375 C 334.050781 175.199219 334.199219 176.023438 333.976562 176.699219 C 333.824219 177.226562 333.300781 177.75 332.773438 177.976562 C 332.175781 178.199219 331.199219 178.273438 330.523438 177.898438 C 329.550781 177.449219 329.175781 175.875 327.898438 174.449219 C 325.574219 171.976562 318 166.726562 316.726562 164.625 C 316.273438 163.875 316.199219 163.425781 316.273438 162.898438 C 316.273438 162.300781 316.648438 161.625 317.023438 161.25 C 317.476562 160.875 318.074219 160.648438 318.675781 160.574219 C 319.5 160.574219 320.324219 161.023438 321.523438 161.625 C 324.074219 162.898438 331.199219 167.101562 332.398438 169.199219 C 332.925781 170.101562 333 171 332.699219 171.601562 C 332.324219 172.351562 330.976562 173.175781 330.226562 173.25 C 329.550781 173.324219 329.175781 173.101562 328.5 172.574219 C 326.851562 171.375 322.425781 166.726562 321.898438 164.625 C 321.675781 163.5 321.976562 162.226562 322.574219 161.699219 C 323.175781 161.175781 324.300781 160.949219 325.5 161.25 C 327.976562 161.925781 334.574219 167.550781 335.699219 169.726562 C 336.148438 170.625 336.148438 171.449219 335.851562 172.125 C 335.550781 172.800781 334.648438 173.476562 333.976562 173.625 C 333.375 173.773438 332.773438 173.625 332.175781 173.324219 C 331.425781 172.875 330.976562 172.050781 330.074219 171 C 328.425781 168.898438 323.625 163.800781 323.101562 161.398438 C 322.800781 160.199219 322.949219 159.074219 323.625 158.398438 C 324.375 157.574219 326.550781 157.199219 327.824219 157.273438 C 328.800781 157.273438 329.476562 157.574219 330.449219 158.175781 C 332.101562 159.148438 334.648438 161.773438 336.226562 163.574219 C 337.574219 165.074219 339.300781 166.574219 339.449219 168 C 339.523438 169.199219 338.699219 170.925781 337.875 171.449219 C 337.125 171.898438 335.925781 171.898438 334.726562 171.300781 C 332.25 170.175781 325.949219 163.425781 325.425781 161.101562 C 325.199219 160.125 325.648438 159.226562 326.175781 158.773438 C 326.773438 158.25 327.824219 158.023438 329.101562 158.25 C 331.648438 158.699219 338.925781 162.601562 340.125 164.699219 C 340.726562 165.675781 340.5 166.949219 340.199219 167.625 C 339.898438 168.148438 339.226562 168.523438 338.699219 168.675781 C 338.175781 168.824219 337.574219 168.75 336.898438 168.523438 C 335.476562 168 332.699219 165.976562 331.425781 164.773438 C 330.675781 164.023438 330.300781 163.425781 329.851562 162.523438 C 329.25 161.550781 328.648438 160.5 328.425781 159.226562 C 328.125 157.800781 328.125 155.773438 328.351562 154.5 C 328.574219 153.523438 328.800781 152.851562 329.25 152.175781 C 329.773438 151.425781 330.375 150.675781 331.273438 150.148438 C 332.550781 149.476562 334.875 149.101562 336.300781 148.949219 C 337.273438 148.875 338.023438 148.875 338.851562 149.101562 C 339.675781 149.398438 340.949219 150.824219 341.101562 150.675781 C 341.324219 150.523438 340.050781 148.648438 340.199219 148.5 C 340.425781 148.351562 342.375 149.925781 342.375 149.851562 C 342.449219 149.851562 340.273438 148.875 339.976562 148.125 C 339.675781 147.375 340.199219 145.800781 340.726562 145.273438 C 341.175781 144.824219 341.773438 144.675781 342.523438 144.601562 C 343.574219 144.523438 345.148438 144.898438 346.574219 145.425781 C 348.148438 146.101562 350.101562 147.300781 351.449219 148.5 C 352.800781 149.625 354.148438 151.125 354.824219 152.324219 C 355.273438 153.148438 355.5 153.898438 355.425781 154.648438 C 355.351562 155.476562 354.898438 156.449219 354.226562 156.976562 C 353.550781 157.574219 352.351562 157.949219 351.523438 158.023438 C 350.699219 158.175781 349.875 158.175781 349.199219 157.875 C 348.300781 157.5 347.625 156.75 346.875 155.699219 C 345.523438 153.898438 343.425781 149.550781 343.125 147.375 C 342.976562 146.023438 342.898438 144.675781 343.648438 144 C 344.476562 143.25 346.875 143.324219 348.675781 143.851562 C 351.226562 144.601562 355.648438 148.199219 356.925781 149.699219 C 357.449219 150.300781 357.601562 150.75 357.675781 151.273438 C 357.675781 151.875 357.449219 152.550781 357.148438 153 C 356.773438 153.449219 356.175781 153.824219 355.648438 153.976562 C 355.125 154.050781 354.300781 153.824219 353.851562 153.675781 C 353.625 153.523438 353.398438 153.449219 353.398438 153.300781 C 353.324219 152.699219 356.25 149.476562 356.925781 149.625 C 357.375 149.699219 357.675781 150.675781 357.675781 151.273438 C 357.675781 151.875 357.300781 152.925781 356.773438 153.375 C 356.25 153.824219 355.5 153.976562 354.449219 153.824219 C 351.976562 153.449219 342.75 149.023438 342 147.074219 C 341.699219 146.25 342.226562 145.273438 342.75 144.824219 C 343.351562 144.300781 344.925781 144.074219 345.675781 144.375 C 346.273438 144.675781 347.175781 146.25 347.023438 146.324219 C 347.023438 146.398438 345.824219 145.5 345.824219 145.5 C 345.898438 145.5 348.074219 146.398438 348.75 147.074219 C 349.351562 147.75 349.800781 148.5 349.949219 149.476562 C 350.023438 150.75 349.351562 152.550781 348.523438 154.425781 C 347.324219 157.199219 344.101562 162.523438 342.449219 164.101562 C 341.699219 164.851562 341.101562 165.226562 340.425781 165.300781 C 339.824219 165.375 339.226562 165.074219 338.773438 164.699219 C 338.324219 164.398438 337.949219 163.726562 337.875 163.199219 C 337.800781 162.675781 337.800781 162.148438 338.25 161.476562 C 339.300781 159.675781 344.773438 155.324219 347.25 153.898438 C 348.75 153.074219 350.25 152.398438 351.226562 152.550781 C 351.898438 152.625 352.425781 153.074219 352.726562 153.523438 C 353.023438 153.976562 353.324219 154.425781 353.175781 155.25 C 352.726562 157.351562 347.324219 163.5 344.625 165.824219 C 342.75 167.398438 340.726562 169.050781 339.226562 168.976562 C 338.175781 168.898438 336.824219 168 336.523438 166.949219 C 336.074219 165.449219 337.949219 162.148438 339.148438 159.824219 C 340.5 157.273438 342.75 153.300781 344.398438 152.25 C 345.148438 151.726562 345.976562 151.648438 346.648438 151.800781 C 347.324219 152.023438 348.074219 152.851562 348.300781 153.449219 C 348.523438 153.976562 348.449219 154.574219 348.226562 155.175781 C 347.773438 156.226562 346.5 157.425781 345.148438 158.625 C 343.425781 160.199219 340.125 162.976562 338.324219 163.351562 C 337.273438 163.574219 336.148438 163.351562 335.625 162.824219 C 335.101562 162.300781 334.800781 161.175781 335.175781 160.125 C 335.925781 157.726562 341.550781 153.375 344.773438 150.449219 C 347.625 147.824219 351.300781 144.375 353.324219 143.398438 C 354.226562 142.949219 354.898438 142.800781 355.5 142.875 C 356.023438 143.023438 356.625 143.398438 356.851562 143.925781 C 357.148438 144.523438 357.300781 145.574219 356.773438 146.625 C 355.425781 149.476562 345.148438 157.5 341.851562 158.925781 C 340.5 159.523438 339.523438 159.601562 338.699219 159.300781 C 337.949219 159.074219 337.199219 158.25 336.898438 157.574219 C 336.601562 156.898438 336.75 156.226562 336.976562 155.175781 C 337.5 152.550781 339.976562 143.550781 341.851562 142.425781 C 342.75 141.898438 344.550781 142.273438 344.699219 142.875 C 345.148438 144.074219 337.875 150.523438 335.324219 152.550781 C 333.824219 153.675781 332.550781 154.5 331.351562 154.800781 C 330.523438 154.949219 329.625 154.949219 329.023438 154.5 C 328.425781 154.050781 327.75 152.773438 327.976562 151.875 C 328.273438 150.523438 330.824219 148.875 332.550781 147.523438 C 334.574219 146.023438 337.726562 143.773438 339.300781 143.324219 C 340.050781 143.101562 340.574219 143.101562 341.101562 143.324219 C 341.625 143.476562 342.226562 143.925781 342.449219 144.449219 C 342.75 145.125 342.675781 146.175781 342.148438 147.300781 C 340.949219 149.851562 333.601562 156.375 331.425781 157.648438 C 330.675781 158.101562 330.300781 158.25 329.773438 158.25 C 329.175781 158.175781 328.5 157.949219 328.125 157.5 C 327.75 157.125 327.375 156.449219 327.375 155.925781 C 327.300781 155.398438 327.449219 154.949219 327.898438 154.199219 C 329.25 151.875 337.800781 143.773438 340.425781 142.351562 C 341.398438 141.75 342.074219 141.601562 342.75 141.75 C 343.5 141.898438 344.324219 142.648438 344.550781 143.324219 C 344.851562 143.925781 344.773438 144.601562 344.550781 145.5 C 343.949219 147.375 340.726562 153.898438 339.601562 153.898438 C 339.074219 153.898438 339.074219 152.023438 338.324219 151.648438 C 337.574219 151.273438 335.25 152.625 335.023438 152.25 C 334.574219 151.425781 342.226562 143.925781 344.25 143.023438 C 345 142.648438 345.523438 142.726562 346.125 142.875 C 346.648438 143.023438 347.25 143.550781 347.550781 144 C 347.851562 144.523438 348 145.273438 347.925781 145.800781 C 347.851562 146.398438 347.324219 147.074219 347.023438 147.375 C 346.800781 147.601562 346.648438 147.75 346.5 147.75 C 345.898438 147.523438 343.800781 143.550781 344.175781 142.949219 C 344.398438 142.574219 345.449219 142.574219 346.050781 142.800781 C 346.648438 143.023438 347.550781 143.773438 347.773438 144.449219 C 348 145.125 347.851562 145.875 347.398438 146.851562 C 346.273438 149.175781 341.25 154.125 338.324219 156.675781 C 336 158.699219 333.074219 160.800781 331.425781 161.324219 C 330.675781 161.625 330.148438 161.625 329.625 161.476562 C 329.023438 161.25 328.425781 160.875 328.125 160.273438 C 327.824219 159.601562 327.824219 158.25 328.351562 157.351562 C 329.175781 156 332.324219 155.398438 334.273438 153.675781 C 336.675781 151.574219 339.375 146.023438 341.324219 144.976562 C 342.148438 144.449219 342.976562 144.523438 343.574219 144.675781 C 344.175781 144.824219 344.699219 145.351562 344.925781 145.875 C 345.226562 146.324219 345.300781 147 345.148438 147.601562 C 344.925781 148.5 344.023438 149.550781 343.199219 150.449219 C 342.226562 151.5 341.023438 152.550781 339.675781 153.375 C 338.25 154.351562 336.675781 155.023438 334.875 155.699219 C 332.625 156.601562 328.726562 158.550781 327.074219 158.101562 C 326.175781 157.875 325.425781 156.976562 325.199219 156.300781 C 325.050781 155.773438 325.199219 155.175781 325.5 154.726562 C 325.726562 154.273438 326.773438 153.675781 326.773438 153.675781 " clip-rule="nonzero"/></clipPath><clipPath id="e28d660800"><path d="M 320.296875 135.273438 L 360.851562 135.273438 L 360.851562 176.191406 L 320.296875 176.191406 Z M 320.296875 135.273438 " clip-rule="nonzero"/></clipPath><clipPath id="84b7aa1a41"><path d="M 320.398438 170.324219 C 322.050781 166.199219 322.949219 165.375 323.476562 164.550781 C 324 163.800781 324.375 163.050781 324.898438 162.449219 C 325.425781 161.851562 326.101562 161.476562 326.773438 160.949219 C 327.375 160.425781 328.125 159.898438 328.800781 159.449219 C 329.398438 159 330.300781 158.925781 330.601562 158.398438 C 330.898438 157.875 330.601562 157.050781 330.675781 156.300781 C 330.75 155.550781 330.824219 154.726562 331.125 153.824219 C 331.425781 152.851562 331.949219 151.5 332.550781 150.675781 C 333.074219 149.925781 333.976562 149.550781 334.351562 148.875 C 334.648438 148.273438 334.425781 147.449219 334.648438 146.773438 C 334.875 145.875 335.699219 144.300781 335.851562 144.148438 C 335.851562 144.148438 335.851562 144.148438 335.925781 144.148438 C 336 144 336 143.324219 336.300781 143.023438 C 336.675781 142.5 337.574219 142.125 338.324219 141.75 C 339.148438 141.300781 340.726562 141.148438 341.175781 140.699219 C 341.398438 140.476562 341.175781 140.101562 341.324219 139.800781 C 341.625 139.199219 342.300781 138.148438 343.050781 137.625 C 343.875 137.101562 345.148438 136.875 346.125 136.726562 C 346.949219 136.648438 347.625 136.726562 348.523438 136.800781 C 349.5 136.875 350.773438 136.875 351.75 137.175781 C 352.648438 137.476562 353.773438 138.523438 354.226562 138.449219 C 354.449219 138.449219 354.449219 138.300781 354.675781 138.074219 C 355.050781 137.773438 356.476562 136.5 356.476562 136.5 C 356.476562 136.5 356.550781 136.351562 356.625 136.273438 C 356.699219 136.199219 356.773438 136.050781 356.773438 136.050781 C 356.773438 136.050781 356.925781 135.976562 357 135.898438 C 357.074219 135.824219 357.226562 135.75 357.226562 135.75 C 357.226562 135.675781 357.375 135.601562 357.449219 135.601562 C 357.523438 135.523438 357.675781 135.449219 357.675781 135.449219 C 357.675781 135.449219 357.898438 135.449219 357.976562 135.449219 C 358.050781 135.375 358.199219 135.375 358.199219 135.375 C 358.199219 135.375 358.425781 135.375 358.5 135.375 C 358.574219 135.375 358.726562 135.375 358.726562 135.375 C 358.726562 135.375 358.949219 135.449219 359.023438 135.449219 C 359.101562 135.523438 359.25 135.523438 359.25 135.523438 C 359.25 135.523438 359.398438 135.601562 359.476562 135.675781 C 359.550781 135.75 359.773438 135.824219 359.773438 135.824219 C 359.773438 135.824219 359.773438 135.824219 359.773438 135.898438 C 359.851562 135.898438 359.851562 135.898438 359.851562 135.898438 C 359.851562 135.898438 359.925781 135.976562 360 136.050781 C 360.074219 136.125 360.226562 136.273438 360.226562 136.273438 C 360.226562 136.273438 360.300781 136.425781 360.375 136.5 C 360.375 136.574219 360.523438 136.726562 360.523438 136.726562 C 360.523438 136.726562 360.523438 136.875 360.601562 136.949219 C 360.601562 137.023438 360.675781 137.175781 360.675781 137.25 C 360.675781 137.25 360.675781 137.398438 360.675781 137.476562 C 360.675781 137.550781 360.75 137.773438 360.75 137.773438 C 360.75 137.773438 360.675781 137.925781 360.675781 138 C 360.675781 138.074219 360.675781 138.300781 360.675781 138.300781 C 360.675781 138.300781 360.601562 138.449219 360.523438 138.523438 C 360.523438 138.601562 360.449219 138.75 360.449219 138.75 C 360.449219 138.824219 359.101562 140.175781 358.800781 140.476562 C 358.648438 140.550781 358.574219 140.550781 358.5 140.699219 C 358.351562 140.773438 358.199219 140.925781 358.050781 141.148438 C 357.75 141.449219 357.148438 141.75 357 142.199219 C 356.773438 142.726562 357.226562 143.699219 357.148438 144.300781 C 357.074219 144.675781 356.699219 144.976562 356.699219 145.351562 C 356.773438 145.800781 357.601562 146.324219 357.824219 146.925781 C 358.050781 147.675781 358.050781 148.574219 357.976562 149.324219 C 357.976562 150.148438 357.75 150.898438 357.601562 151.726562 C 357.523438 152.476562 357.449219 153.300781 357.226562 154.125 C 356.925781 155.023438 356.550781 155.925781 356.175781 156.75 C 355.800781 157.574219 355.273438 158.925781 355.125 159.148438 C 355.125 159.148438 355.050781 159.148438 355.050781 159.148438 C 355.050781 159.226562 355.050781 159.226562 355.050781 159.226562 C 354.976562 159.300781 354.898438 159.300781 354.75 159.375 C 354.449219 159.601562 353.476562 160.574219 352.800781 160.949219 C 352.125 161.324219 351.449219 161.550781 350.625 161.699219 C 349.648438 161.925781 348.375 162 347.398438 161.925781 C 346.574219 161.851562 345.75 161.101562 345.226562 161.324219 C 344.699219 161.476562 344.625 162.300781 344.101562 162.675781 C 343.425781 163.125 341.925781 163.351562 341.101562 163.574219 C 340.574219 163.648438 339.898438 163.5 339.75 163.800781 C 339.523438 164.101562 340.273438 165 340.199219 165.601562 C 340.199219 166.351562 339.523438 167.175781 339.148438 167.925781 C 338.699219 168.824219 338.398438 169.875 337.648438 170.699219 C 336.824219 171.75 335.324219 172.726562 334.273438 173.550781 C 333.449219 174.226562 332.851562 174.976562 332.023438 175.351562 C 331.199219 175.800781 330.148438 175.949219 329.25 176.023438 C 328.351562 176.101562 327.449219 176.101562 326.550781 175.949219 C 325.425781 175.800781 324.148438 175.5 323.175781 174.976562 C 322.273438 174.523438 321.300781 173.773438 320.851562 172.949219 C 320.398438 172.199219 320.398438 170.324219 320.398438 170.324219 M 326.023438 169.351562 C 328.726562 171 329.925781 170.550781 330 170.398438 C 330 170.398438 329.925781 170.398438 329.925781 170.398438 C 329.925781 170.324219 329.925781 170.175781 329.925781 170.101562 C 329.925781 170.023438 329.925781 169.875 329.925781 169.800781 C 329.925781 169.800781 329.925781 169.800781 329.925781 169.726562 C 329.925781 169.648438 329.925781 169.648438 329.925781 169.5 C 329.925781 169.351562 330.074219 168.976562 330.148438 168.75 C 330.300781 168.523438 330.449219 168.449219 330.601562 168.148438 C 330.976562 167.476562 331.425781 165.300781 332.101562 164.398438 C 332.550781 163.800781 333.675781 163.273438 333.601562 162.976562 C 333.601562 162.898438 333.300781 162.75 333.148438 162.75 C 332.851562 162.75 332.398438 163.125 331.949219 163.425781 C 331.273438 163.875 330.226562 164.550781 329.550781 165.148438 C 328.875 165.824219 328.351562 166.5 327.824219 167.175781 C 327.226562 167.925781 326.023438 169.351562 326.023438 169.351562 M 347.476562 141.976562 C 349.351562 142.425781 349.351562 142.425781 349.351562 142.351562 C 349.425781 142.351562 349.800781 142.125 349.800781 142.050781 C 349.726562 141.898438 347.476562 141.976562 347.476562 141.976562 " clip-rule="nonzero"/></clipPath><clipPath id="fd0e7fdc95"><path d="M 301.933594 115.933594 L 372.6875 115.933594 L 372.6875 206 L 301.933594 206 Z M 301.933594 115.933594 " clip-rule="nonzero"/></clipPath><clipPath id="7abc9192e9"><path d="M 305.023438 171.75 C 321.898438 151.875 325.273438 149.175781 328.648438 145.648438 C 332.023438 142.050781 336 133.648438 338.476562 134.25 C 341.25 134.851562 345.226562 151.574219 343.726562 152.476562 C 342.449219 153.375 332.25 142.875 332.25 142.875 C 332.25 142.875 337.574219 147.148438 337.5 147.300781 C 337.351562 147.449219 332.699219 145.050781 330.976562 143.324219 C 329.175781 141.523438 327.75 138.675781 327 136.726562 C 326.476562 135.300781 326.324219 134.398438 326.324219 132.898438 C 326.324219 130.800781 326.699219 127.648438 327.75 125.324219 C 328.726562 123.074219 330.898438 120.675781 332.476562 119.324219 C 333.601562 118.351562 334.425781 117.898438 335.773438 117.375 C 337.726562 116.625 341.25 115.949219 343.351562 115.949219 C 344.851562 116.023438 345.523438 116.175781 347.175781 116.699219 C 350.476562 117.75 357.449219 119.925781 361.648438 123.074219 C 365.925781 126.300781 371.25 131.175781 372.375 135.898438 C 373.351562 140.398438 371.398438 146.851562 368.625 150.675781 C 365.851562 154.5 359.851562 155.699219 355.800781 158.851562 C 351.75 162 347.699219 165.675781 344.476562 169.574219 C 341.324219 173.324219 337.199219 178.125 336.675781 181.648438 C 336.300781 184.199219 338.476562 186.375 338.625 188.550781 C 338.699219 190.425781 338.398438 192.226562 337.800781 193.949219 C 337.273438 195.675781 336.449219 197.398438 335.398438 198.824219 C 334.273438 200.324219 332.925781 201.675781 331.5 202.648438 C 330 203.699219 328.273438 204.523438 326.550781 205.050781 C 324.824219 205.574219 322.949219 205.800781 321.148438 205.800781 C 319.351562 205.726562 317.476562 205.351562 315.75 204.675781 C 314.101562 204.074219 312.449219 203.101562 311.023438 201.976562 C 309.675781 200.851562 308.398438 199.425781 307.425781 197.925781 C 306.449219 196.351562 305.699219 194.625 305.324219 192.824219 C 304.875 191.101562 304.726562 189.226562 304.875 187.425781 C 305.023438 185.625 305.550781 183.75 306.226562 182.101562 C 306.976562 180.449219 308.023438 178.875 309.226562 177.523438 C 310.425781 176.175781 311.925781 174.976562 313.5 174.148438 C 315.074219 173.25 316.875 172.574219 318.675781 172.273438 C 320.398438 171.976562 322.351562 171.898438 324.148438 172.199219 C 325.875 172.425781 327.75 173.023438 329.324219 173.851562 C 330.976562 174.601562 332.476562 175.726562 333.75 177.074219 C 335.023438 178.351562 336.148438 179.851562 336.898438 181.5 C 337.726562 183.148438 338.25 184.949219 338.476562 186.75 C 338.699219 188.550781 338.625 190.425781 338.25 192.226562 C 337.949219 193.949219 337.273438 195.75 336.375 197.324219 C 335.476562 198.898438 334.273438 200.324219 332.925781 201.523438 C 331.574219 202.726562 329.925781 203.773438 328.273438 204.449219 C 326.625 205.125 324.75 205.574219 322.949219 205.726562 C 321.148438 205.875 319.273438 205.726562 317.550781 205.273438 C 315.75 204.824219 314.023438 204.074219 312.523438 203.023438 C 311.023438 202.050781 309.601562 200.773438 308.476562 199.351562 C 307.351562 198 306.523438 196.800781 305.851562 194.625 C 304.5 190.425781 302.851562 181.125 303.976562 175.425781 C 305.023438 170.324219 308.625 166.199219 311.398438 161.773438 C 314.175781 157.199219 317.398438 152.773438 320.699219 148.648438 C 323.773438 144.675781 326.699219 140.550781 330.523438 137.476562 C 334.273438 134.476562 341.851562 129.226562 343.199219 130.425781 C 344.773438 131.699219 340.273438 146.25 337.5 147.300781 C 335.699219 147.976562 332.699219 145.050781 330.976562 143.324219 C 329.175781 141.523438 327.75 139.050781 327 136.726562 C 326.25 134.324219 326.101562 131.476562 326.550781 129.074219 C 327 126.601562 328.199219 123.976562 329.699219 122.023438 C 331.273438 120.074219 333.523438 118.351562 335.773438 117.375 C 338.023438 116.324219 341.25 115.949219 343.351562 115.949219 C 344.851562 116.023438 345.675781 116.101562 347.175781 116.699219 C 349.5 117.601562 352.875 119.476562 355.648438 121.949219 C 359.25 125.023438 365.101562 129.675781 366.148438 134.625 C 367.273438 139.949219 364.800781 147.300781 361.199219 153.074219 C 356.625 160.425781 343.351562 167.023438 337.949219 173.476562 C 334.125 178.050781 332.476562 183.375 330 186.675781 C 328.351562 188.925781 326.699219 190.726562 325.199219 192 C 324.148438 192.824219 323.476562 193.273438 322.199219 193.800781 C 320.476562 194.398438 317.699219 195.148438 315.449219 195 C 313.199219 194.851562 310.5 193.800781 308.851562 192.976562 C 307.726562 192.300781 307.050781 191.773438 306.148438 190.800781 C 304.875 189.375 303.226562 186.675781 302.550781 184.875 C 302.101562 183.675781 301.949219 182.851562 301.949219 181.5 C 301.949219 179.625 302.550781 176.476562 303.226562 174.675781 C 303.675781 173.476562 305.023438 171.75 305.023438 171.75 " clip-rule="nonzero"/></clipPath><clipPath id="deea829b3a"><path d="M 297 139 L 354 139 L 354 198 L 297 198 Z M 297 139 " clip-rule="nonzero"/></clipPath><clipPath id="d7705fad65"><path d="M 289.578125 177.300781 L 332.421875 132.140625 L 360.714844 158.980469 L 317.875 204.140625 Z M 289.578125 177.300781 " clip-rule="nonzero"/></clipPath><clipPath id="739695be17"><path d="M 289.578125 177.300781 L 332.421875 132.140625 L 360.714844 158.980469 L 317.875 204.140625 Z M 289.578125 177.300781 " clip-rule="nonzero"/></clipPath><clipPath id="5e9c50c61d"><path d="M 301 158 L 317 158 L 317 174 L 301 174 Z M 301 158 " clip-rule="nonzero"/></clipPath><clipPath id="3ba6b6a118"><path d="M 289.578125 177.300781 L 332.421875 132.140625 L 360.714844 158.980469 L 317.875 204.140625 Z M 289.578125 177.300781 " clip-rule="nonzero"/></clipPath><clipPath id="b896b9c67c"><path d="M 289.578125 177.300781 L 332.421875 132.140625 L 360.714844 158.980469 L 317.875 204.140625 Z M 289.578125 177.300781 " clip-rule="nonzero"/></clipPath><clipPath id="d5fb395097"><path d="M 321 177 L 336 177 L 336 192 L 321 192 Z M 321 177 " clip-rule="nonzero"/></clipPath><clipPath id="abdd5e1940"><path d="M 289.578125 177.300781 L 332.421875 132.140625 L 360.714844 158.980469 L 317.875 204.140625 Z M 289.578125 177.300781 " clip-rule="nonzero"/></clipPath><clipPath id="7a8991f7c1"><path d="M 289.578125 177.300781 L 332.421875 132.140625 L 360.714844 158.980469 L 317.875 204.140625 Z M 289.578125 177.300781 " clip-rule="nonzero"/></clipPath><clipPath id="8b14841ed4"><path d="M 334 163 L 349 163 L 349 179 L 334 179 Z M 334 163 " clip-rule="nonzero"/></clipPath><clipPath id="7d6d10fbd2"><path d="M 289.578125 177.300781 L 332.421875 132.140625 L 360.714844 158.980469 L 317.875 204.140625 Z M 289.578125 177.300781 " clip-rule="nonzero"/></clipPath><clipPath id="f1013f39fb"><path d="M 289.578125 177.300781 L 332.421875 132.140625 L 360.714844 158.980469 L 317.875 204.140625 Z M 289.578125 177.300781 " clip-rule="nonzero"/></clipPath><clipPath id="efa7cd6360"><path d="M 314 145 L 330 145 L 330 160 L 314 160 Z M 314 145 " clip-rule="nonzero"/></clipPath><clipPath id="547c1a309b"><path d="M 289.578125 177.300781 L 332.421875 132.140625 L 360.714844 158.980469 L 317.875 204.140625 Z M 289.578125 177.300781 " clip-rule="nonzero"/></clipPath><clipPath id="6cf573cfd5"><path d="M 289.578125 177.300781 L 332.421875 132.140625 L 360.714844 158.980469 L 317.875 204.140625 Z M 289.578125 177.300781 " clip-rule="nonzero"/></clipPath><clipPath id="761f8c2ce1"><path d="M 300.285156 143.601562 L 330.914062 143.601562 L 330.914062 174.65625 L 300.285156 174.65625 Z M 300.285156 143.601562 " clip-rule="nonzero"/></clipPath><clipPath id="fe697d5d3e"><path d="M 305.773438 164.550781 C 307.125 168 305.023438 168.074219 304.800781 167.773438 C 304.5 167.398438 305.101562 166.425781 305.550781 165.523438 C 306.601562 163.574219 309.523438 158.699219 311.175781 157.273438 C 312.074219 156.523438 312.976562 156 313.574219 156.148438 C 314.25 156.375 315.148438 157.800781 315.148438 158.550781 C 315.074219 159.148438 313.949219 160.125 313.949219 160.125 C 313.949219 160.125 315 158.25 315.148438 158.324219 C 315.375 158.398438 314.550781 161.25 313.949219 162.675781 C 313.351562 164.101562 312.375 166.351562 311.324219 166.875 C 310.648438 167.25 309.449219 167.023438 308.925781 166.648438 C 308.476562 166.273438 308.101562 165.523438 308.175781 164.773438 C 308.324219 163.125 310.648438 159.898438 312.675781 157.574219 C 315.074219 154.800781 319.648438 151.800781 321.898438 149.625 C 323.324219 148.351562 324.675781 147.226562 325.050781 146.324219 C 325.273438 145.875 325.050781 145.425781 325.273438 145.125 C 325.5 144.824219 326.175781 144.523438 326.699219 144.601562 C 327.300781 144.601562 328.199219 145.050781 328.5 145.5 C 328.875 146.023438 329.101562 146.925781 328.800781 147.523438 C 328.199219 148.648438 325.050781 149.101562 323.324219 150.300781 C 321.523438 151.648438 319.726562 155.023438 318.226562 155.25 C 317.398438 155.398438 316.351562 154.875 315.976562 154.273438 C 315.601562 153.824219 315.523438 153.074219 315.75 152.25 C 316.425781 150.300781 321.074219 144.523438 323.101562 143.773438 C 324.148438 143.476562 325.425781 143.773438 325.875 144.375 C 326.324219 144.898438 326.398438 146.550781 326.023438 146.773438 C 325.5 147.074219 322.351562 145.199219 322.351562 144.601562 C 322.425781 144.148438 324 143.476562 324.601562 143.625 C 325.273438 143.773438 326.175781 144.75 326.324219 145.351562 C 326.476562 145.875 326.398438 146.398438 326.023438 146.851562 C 325.199219 147.976562 321.226562 150 319.574219 150 C 318.675781 150.074219 317.699219 149.699219 317.324219 149.101562 C 316.949219 148.5 316.949219 147.300781 317.324219 146.625 C 317.773438 145.875 319.125 145.425781 320.175781 145.199219 C 321.449219 144.824219 323.324219 144.523438 324.601562 144.976562 C 325.800781 145.5 327 146.773438 327.601562 147.976562 C 328.273438 149.398438 328.875 151.875 328.050781 153 C 327.226562 154.273438 323.476562 153.898438 321.898438 154.648438 C 320.925781 155.175781 319.648438 156.449219 319.574219 156.375 C 319.5 156.300781 320.398438 155.175781 321.148438 154.574219 C 322.425781 153.523438 326.398438 150.898438 326.773438 151.199219 C 327.074219 151.425781 326.324219 152.625 325.648438 153.75 C 323.773438 156.898438 316.875 167.773438 313.5 170.023438 C 311.851562 171.074219 310.273438 171.074219 309.074219 171 C 308.101562 170.925781 307.5 170.625 306.601562 170.023438 C 305.25 169.199219 301.800781 166.726562 301.949219 165.824219 C 302.101562 165.226562 304.125 164.476562 304.648438 164.773438 C 305.25 165.148438 304.125 168 304.949219 168.898438 C 305.925781 169.949219 310.351562 168.824219 311.476562 169.648438 C 312.074219 170.101562 312.226562 171 312.148438 171.601562 C 312.148438 172.050781 311.925781 172.574219 311.476562 172.949219 C 310.5 173.773438 307.425781 174.523438 305.925781 174.601562 C 304.875 174.675781 304.050781 174.675781 303.300781 174.226562 C 302.550781 173.851562 301.800781 173.023438 301.648438 172.273438 C 301.425781 171.601562 301.648438 170.851562 302.023438 170.023438 C 302.476562 168.75 303.300781 167.398438 304.648438 165.898438 C 306.824219 163.273438 312.523438 159.226562 315.148438 156.449219 C 316.949219 154.5 317.925781 151.574219 319.199219 151.050781 C 319.875 150.824219 320.773438 151.050781 321.226562 151.425781 C 321.75 151.875 322.125 152.773438 321.976562 153.824219 C 321.675781 156.300781 316.800781 162.898438 314.550781 165.375 C 313.199219 166.800781 311.851562 168.226562 310.800781 168.226562 C 310.199219 168.226562 309.449219 167.625 309.148438 167.101562 C 308.851562 166.648438 308.851562 165.976562 309.074219 165.148438 C 309.75 163.050781 314.476562 158.699219 316.5 155.476562 C 318.226562 152.699219 319.199219 148.351562 320.550781 147.074219 C 321.148438 146.550781 321.75 146.324219 322.351562 146.324219 C 322.800781 146.324219 323.398438 146.625 323.773438 147 C 324.148438 147.375 324.449219 148.199219 324.375 148.949219 C 324.226562 149.925781 323.023438 151.125 322.125 152.324219 C 320.851562 153.898438 319.351562 155.699219 317.398438 157.5 C 315 159.898438 310.199219 162.976562 308.324219 165.074219 C 307.273438 166.273438 307.199219 168 306.300781 168.375 C 305.550781 168.675781 303.976562 168.226562 303.449219 167.699219 C 303.074219 167.25 303.074219 166.199219 303.226562 165.675781 C 303.375 165.148438 304.125 164.398438 304.273438 164.476562 C 304.351562 164.550781 303.375 167.25 303.226562 167.25 C 303.148438 167.25 303.074219 165.449219 303.449219 164.476562 C 303.898438 163.199219 305.101562 161.851562 306.523438 160.199219 C 308.773438 157.574219 313.574219 153.75 316.050781 150.75 C 318 148.425781 319.125 144.898438 320.625 144.148438 C 321.375 143.773438 322.273438 143.851562 322.875 144.148438 C 323.550781 144.449219 324.300781 145.125 324.523438 145.875 C 324.75 146.550781 324.523438 147.449219 324.148438 148.425781 C 323.625 149.925781 322.648438 152.324219 321 153.976562 C 318.898438 156.074219 313.949219 157.425781 311.699219 159.300781 C 309.976562 160.726562 309.148438 163.425781 307.949219 163.726562 C 307.125 163.949219 305.851562 163.351562 305.476562 162.75 C 305.101562 162.148438 305.324219 160.648438 305.773438 160.050781 C 306.148438 159.601562 307.125 159.300781 307.726562 159.449219 C 308.324219 159.523438 309.148438 160.125 309.375 160.648438 C 309.601562 161.25 309.523438 162.226562 309.226562 162.75 C 309.074219 163.199219 308.625 163.5 308.175781 163.648438 C 307.648438 163.800781 306.601562 163.800781 306.074219 163.425781 C 305.625 163.050781 305.101562 162.375 305.175781 161.625 C 305.25 160.199219 307.5 157.351562 309.300781 155.773438 C 311.25 154.125 314.476562 153.523438 316.425781 151.949219 C 318.148438 150.675781 319.273438 147.675781 320.625 147.375 C 321.449219 147.148438 322.800781 147.601562 322.949219 148.199219 C 323.324219 149.25 320.550781 152.175781 318.601562 154.5 C 315.824219 157.800781 308.851562 162.75 307.199219 165.449219 C 306.523438 166.574219 306.976562 168 306.300781 168.375 C 305.773438 168.75 304.351562 168.523438 303.824219 168.074219 C 303.300781 167.625 303.074219 166.5 303.226562 165.675781 C 303.375 164.625 304.273438 163.574219 305.398438 162.300781 C 307.425781 159.976562 312.449219 156.449219 315.148438 153.601562 C 317.398438 151.273438 319.050781 147.601562 320.851562 146.773438 C 321.824219 146.324219 323.175781 146.476562 323.773438 147 C 324.300781 147.449219 324.375 148.351562 324.226562 149.398438 C 323.851562 151.726562 321 156.523438 318.898438 159.675781 C 316.875 162.75 313.648438 167.324219 311.851562 168.074219 C 311.101562 168.375 310.351562 168.226562 309.824219 167.925781 C 309.375 167.550781 308.851562 167.023438 308.851562 166.125 C 309 163.574219 316.351562 152.625 318.675781 151.273438 C 319.5 150.824219 320.175781 150.976562 320.773438 151.125 C 321.226562 151.351562 321.675781 151.726562 321.898438 152.25 C 322.125 153.148438 321.898438 154.800781 321 156.449219 C 318.976562 159.976562 305.550781 170.175781 305.773438 170.476562 C 305.851562 170.550781 306.898438 169.648438 307.574219 169.425781 C 308.550781 169.199219 310.199219 168.898438 311.023438 169.351562 C 311.625 169.648438 312.074219 170.398438 312.148438 171 C 312.226562 171.601562 312 172.5 311.476562 172.949219 C 310.5 173.699219 307.574219 173.773438 305.851562 173.476562 C 304.199219 173.25 302.324219 172.648438 301.425781 171.675781 C 300.75 170.925781 300.601562 170.023438 300.449219 168.898438 C 300.300781 167.25 300.226562 163.800781 301.199219 162.824219 C 302.023438 162.074219 304.125 162.074219 304.949219 162.523438 C 305.699219 162.898438 305.625 164.175781 306.300781 164.851562 C 307.125 165.75 308.773438 167.101562 309.824219 167.101562 C 310.726562 167.101562 311.398438 166.574219 312.375 165.675781 C 315.226562 163.050781 321.449219 149.398438 324.75 147.300781 C 326.101562 146.476562 327.375 146.398438 328.351562 146.773438 C 329.398438 147.300781 330.300781 149.023438 330.675781 150.148438 C 330.976562 151.125 330.976562 152.175781 330.675781 152.925781 C 330.523438 153.523438 330.148438 153.898438 329.550781 154.5 C 328.050781 155.773438 323.476562 158.851562 321.148438 159.300781 C 319.648438 159.601562 318.074219 159.375 317.175781 158.625 C 316.425781 158.023438 315.824219 156.601562 315.976562 155.625 C 316.050781 154.574219 317.175781 153.375 318.074219 152.476562 C 318.976562 151.574219 320.324219 150.601562 321.300781 150.148438 C 322.050781 149.851562 322.726562 149.625 323.398438 149.699219 C 324.074219 149.773438 325.050781 149.925781 325.273438 150.449219 C 325.574219 150.898438 324.976562 152.625 324.824219 152.625 C 324.601562 152.699219 324.675781 150.824219 324.226562 150.226562 C 323.773438 149.625 322.875 149.25 322.050781 149.101562 C 320.925781 148.949219 318.898438 150.074219 318.074219 149.773438 C 317.550781 149.625 317.175781 149.101562 317.023438 148.648438 C 316.875 148.050781 316.875 147.226562 317.324219 146.625 C 318.226562 145.425781 322.5 143.398438 324.148438 143.625 C 325.125 143.699219 326.101562 144.75 326.324219 145.351562 C 326.550781 145.875 326.324219 146.773438 326.023438 146.851562 C 325.5 147.074219 322.5 144.601562 322.648438 144.148438 C 322.800781 143.773438 324.976562 143.550781 325.574219 144 C 326.101562 144.375 326.476562 145.351562 326.25 146.324219 C 325.800781 148.425781 320.175781 154.726562 318.226562 155.25 C 317.476562 155.476562 316.726562 155.101562 316.273438 154.726562 C 315.824219 154.273438 315.523438 153.523438 315.601562 152.773438 C 315.824219 151.351562 317.925781 148.425781 319.648438 147.074219 C 321.375 145.800781 325.875 144.375 326.023438 144.675781 C 326.101562 144.824219 324.675781 145.949219 324.675781 145.949219 C 324.675781 146.023438 325.574219 144.75 326.175781 144.601562 C 326.851562 144.523438 328.125 144.976562 328.5 145.5 C 328.949219 146.023438 328.949219 147 328.726562 147.898438 C 328.425781 149.101562 327.300781 150.300781 325.949219 151.800781 C 323.699219 154.273438 318.226562 157.800781 315.601562 160.648438 C 313.726562 162.75 312.675781 166.125 311.324219 166.875 C 310.648438 167.25 309.898438 167.175781 309.375 166.875 C 308.773438 166.574219 308.25 165.75 308.175781 164.773438 C 308.101562 162.898438 310.648438 157.050781 312.074219 156.300781 C 312.824219 155.851562 314.023438 156.226562 314.476562 156.675781 C 315 157.125 315.148438 158.023438 315 159 C 314.476562 161.476562 309.75 169.425781 307.425781 170.324219 C 306.226562 170.773438 304.875 170.175781 304.050781 169.5 C 303.148438 168.75 302.324219 167.175781 302.25 166.125 C 302.25 165.300781 302.773438 164.023438 303.375 163.800781 C 303.898438 163.5 305.773438 164.550781 305.773438 164.550781 " clip-rule="nonzero"/></clipPath><clipPath id="39b9c205cd"><path d="M 320.34375 176.640625 L 338.664062 176.640625 L 338.664062 199.140625 L 320.34375 199.140625 Z M 320.34375 176.640625 " clip-rule="nonzero"/></clipPath><clipPath id="41d1962039"><path d="M 320.398438 185.625 C 321.601562 184.125 321.226562 183.074219 321.601562 182.398438 C 321.976562 181.648438 322.800781 180.824219 323.550781 180.675781 C 324.148438 180.449219 324.976562 180.824219 325.425781 180.976562 C 325.726562 181.050781 325.949219 181.273438 326.101562 181.273438 C 326.175781 181.351562 326.25 181.351562 326.324219 181.273438 C 326.625 181.125 327.226562 179.925781 327.675781 179.476562 C 328.050781 179.101562 328.726562 178.875 328.800781 178.574219 C 328.875 178.425781 328.574219 178.273438 328.648438 178.125 C 328.800781 177.75 330.300781 176.773438 330.824219 176.699219 C 331.199219 176.699219 331.425781 177.148438 331.648438 177.074219 C 331.726562 177.074219 331.875 177 331.875 177 C 331.875 177 332.023438 176.925781 332.101562 176.925781 C 332.175781 176.925781 332.398438 176.851562 332.398438 176.851562 C 332.398438 176.851562 332.550781 176.851562 332.625 176.851562 C 332.699219 176.851562 332.925781 176.851562 332.925781 176.851562 C 332.925781 176.851562 333.074219 176.925781 333.148438 176.925781 C 333.226562 176.925781 333.449219 177 333.449219 177 C 333.449219 177 333.601562 177.074219 333.675781 177.148438 C 333.75 177.148438 333.898438 177.226562 333.898438 177.226562 C 333.898438 177.226562 334.273438 177.75 334.425781 177.898438 C 334.425781 177.898438 334.5 177.898438 334.574219 177.976562 C 334.574219 178.050781 334.726562 178.125 334.726562 178.125 C 334.800781 178.125 334.875 178.273438 334.949219 178.351562 C 335.023438 178.425781 335.101562 178.5 335.101562 178.574219 C 335.101562 178.574219 335.25 178.726562 335.25 178.800781 C 335.25 178.800781 335.25 178.800781 335.324219 178.800781 C 335.476562 178.949219 336.449219 179.925781 336.824219 180.449219 C 337.125 180.824219 337.351562 181.351562 337.5 181.574219 C 337.574219 181.648438 337.648438 181.648438 337.726562 181.726562 C 337.800781 181.800781 337.949219 181.875 337.949219 181.875 C 337.949219 181.875 338.023438 182.023438 338.101562 182.101562 C 338.175781 182.175781 338.25 182.324219 338.25 182.324219 C 338.25 182.324219 338.324219 182.476562 338.398438 182.550781 C 338.398438 182.625 338.476562 182.851562 338.476562 182.851562 C 338.550781 182.851562 338.550781 183 338.550781 183.074219 C 338.550781 183.148438 338.625 183.375 338.625 183.375 C 338.625 183.375 338.625 183.523438 338.625 183.601562 C 338.625 183.675781 338.625 183.898438 338.625 183.898438 C 338.625 183.898438 338.550781 184.050781 338.550781 184.125 C 338.476562 184.273438 338.476562 184.425781 338.476562 184.425781 C 338.476562 184.425781 338.398438 184.425781 338.398438 184.425781 C 338.398438 184.425781 338.550781 184.574219 338.625 184.726562 C 338.625 185.175781 338.175781 186.75 337.726562 187.5 C 337.273438 188.175781 336.375 188.550781 336.074219 189.148438 C 335.925781 189.601562 336.148438 190.050781 336 190.5 C 335.773438 191.101562 335.25 191.699219 334.800781 192.148438 C 334.351562 192.675781 333.523438 193.125 333.074219 193.425781 C 332.773438 193.648438 332.476562 193.648438 332.324219 193.875 C 332.25 194.101562 332.398438 194.398438 332.398438 194.773438 C 332.324219 195.226562 332.175781 196.125 332.175781 196.273438 C 332.175781 196.273438 332.175781 196.5 332.175781 196.574219 C 332.175781 196.648438 332.101562 196.800781 332.101562 196.800781 C 332.101562 196.800781 332.101562 196.949219 332.023438 197.023438 C 332.023438 197.101562 331.949219 197.25 331.949219 197.25 C 331.949219 197.25 331.875 197.398438 331.800781 197.476562 C 331.800781 197.550781 331.648438 197.699219 331.648438 197.699219 C 331.648438 197.699219 331.574219 197.773438 331.5 197.851562 C 331.425781 197.925781 331.273438 198 331.273438 198 C 331.273438 198 331.125 198.074219 331.050781 198.148438 C 330.976562 198.148438 330.898438 198.226562 330.824219 198.226562 C 330.824219 198.226562 330.675781 198.300781 330.601562 198.300781 C 330.523438 198.300781 330.375 198.375 330.375 198.375 C 330.375 198.375 330.148438 198.375 330.148438 198.375 C 330.074219 198.375 330.074219 198.375 330.074219 198.375 C 330 198.449219 329.925781 198.523438 329.925781 198.601562 C 329.851562 198.601562 329.851562 198.601562 329.773438 198.601562 C 329.773438 198.675781 329.699219 198.675781 329.699219 198.675781 C 329.625 198.75 329.550781 198.75 329.476562 198.824219 C 329.398438 198.824219 329.324219 198.898438 329.25 198.898438 C 329.25 198.898438 329.175781 198.898438 329.101562 198.898438 C 329.101562 198.976562 329.101562 198.976562 329.023438 198.976562 C 328.949219 198.976562 328.875 198.976562 328.800781 198.976562 C 328.726562 198.976562 328.648438 199.050781 328.574219 199.050781 C 328.050781 199.050781 325.875 199.273438 324.898438 198.898438 C 324.074219 198.523438 323.25 197.773438 322.949219 197.101562 C 322.648438 196.425781 322.949219 195.148438 322.949219 194.925781 C 322.875 194.851562 322.875 194.851562 322.875 194.773438 C 322.875 194.699219 322.800781 194.550781 322.800781 194.550781 C 322.800781 194.550781 322.800781 194.476562 322.800781 194.398438 C 322.648438 194.101562 321.675781 193.425781 321.375 192.75 C 321.148438 192.074219 321.226562 190.949219 321.300781 190.351562 C 321.375 189.976562 321.601562 189.75 321.523438 189.449219 C 321.523438 189.148438 321.148438 188.925781 321 188.476562 C 320.699219 187.800781 320.398438 185.625 320.398438 185.625 " clip-rule="nonzero"/></clipPath></defs><rect x="-37.5" width="450" fill="#ffffff" y="-37.499999" height="449.999989" fill-opacity="1"/><rect x="-37.5" width="450" fill="#000000" y="-37.499999" height="449.999989" fill-opacity="1"/><g clip-path="url(#f1102df0aa)"><g clip-path="url(#e0a6ec84f8)"><path fill="#000000" d="M 408.265625 277.246094 C 408.265625 409.664062 300.917969 517.011719 168.496094 517.011719 C 36.070312 517.011719 -71.277344 409.664062 -71.277344 277.246094 C -71.277344 144.816406 36.070312 37.46875 168.496094 37.46875 C 300.917969 37.46875 408.265625 144.816406 408.265625 277.246094 " fill-opacity="1" fill-rule="nonzero"/><path fill="#5e17eb" d="M 326.605469 97.070312 C 354.71875 128.308594 372.015625 169.398438 372.015625 213.933594 C 372.015625 309.722656 292.082031 389.648438 196.296875 389.648438 C 100.519531 389.648438 20.589844 309.722656 20.589844 213.933594 C 20.589844 120.582031 96.515625 42.328125 189.039062 38.410156 C 182.257812 37.832031 175.425781 37.46875 168.496094 37.46875 C 36.070312 37.46875 -71.277344 144.816406 -71.277344 277.246094 C -71.277344 409.664062 36.070312 517.011719 168.496094 517.011719 C 300.917969 517.011719 408.265625 409.664062 408.265625 277.246094 C 408.265625 205.414062 376.636719 141.015625 326.605469 97.070312 " fill-opacity="1" fill-rule="nonzero"/></g></g><g clip-path="url(#5d8e0a7580)"><g clip-path="url(#b49a1c5f0e)"><g clip-path="url(#9dc3c1d02f)"><path fill="#000000" d="M 83.585938 488.894531 C 83.585938 488.894531 80.441406 452.0625 104.042969 434.75 C 127.65625 417.4375 135.527344 382.804688 135.527344 382.804688 C 135.527344 382.804688 157.5625 374.9375 151.265625 359.195312 C 151.265625 359.195312 159.664062 353.421875 155.992188 347.125 C 152.320312 340.832031 133.433594 338.214844 125.5625 324.570312 C 117.695312 310.929688 97.230469 304.105469 97.230469 304.105469 C 97.230469 304.105469 84.375 303.714844 80.441406 300.167969 C 76.503906 296.628906 72.175781 295.84375 69.027344 300.167969 C 65.878906 304.503906 62.339844 308.4375 59.976562 306.464844 C 57.617188 304.503906 52.105469 307.253906 52.105469 300.167969 C 52.105469 293.089844 52.105469 287.976562 41.871094 287.578125 C 31.640625 287.1875 46.207031 274.597656 45.027344 272.628906 C 43.847656 270.660156 26.53125 294.269531 20.234375 272.628906 C 13.933594 250.984375 33.21875 251.375 35.972656 253.34375 C 38.726562 255.3125 34.402344 246.65625 41.085938 249.410156 C 47.777344 252.164062 50.535156 259.640625 54.078125 263.183594 C 57.617188 266.722656 59.585938 260.820312 56.828125 250.984375 C 54.078125 241.144531 56.039062 241.933594 62.726562 236.425781 C 69.417969 230.914062 71.777344 231.703125 70.996094 222.648438 C 70.207031 213.605469 83.195312 207.308594 91.0625 211.246094 C 98.933594 215.175781 101.425781 212.816406 101.425781 203.371094 C 101.425781 193.929688 83.058594 200.75 92.5 190.78125 C 101.949219 180.808594 106.675781 189.210938 103.527344 177.660156 C 100.378906 166.125 90.9375 168.742188 90.9375 160.34375 C 90.9375 151.957031 79.390625 163.5 78.339844 156.15625 C 77.285156 148.808594 65.742188 150.382812 62.070312 151.433594 C 58.398438 152.480469 64.175781 178.191406 61.554688 179.238281 C 58.929688 180.292969 55.257812 186.058594 44.238281 171.890625 C 33.21875 157.726562 20.101562 158.015625 31.640625 150.523438 C 43.183594 143.035156 46.855469 140.933594 51.585938 145.660156 C 56.304688 150.382812 56.828125 135.691406 55.78125 133.59375 C 54.726562 131.492188 62.070312 126.25 61.554688 122.574219 C 61.03125 118.902344 41.613281 128.875 36.894531 125.195312 C 32.171875 121.527344 20.097656 127.820312 11.707031 126.769531 C 3.3125 125.71875 -6.132812 140.410156 -17.144531 130.96875 C -28.164062 121.527344 -34.460938 117.855469 -46.527344 118.902344 C -58.597656 119.953125 -65.421875 127.996094 -84.824219 118.726562 C -104.242188 109.457031 -118.410156 124.144531 -121.554688 128.867188 C -124.703125 133.59375 -122.601562 133.070312 -125.226562 137.269531 C -127.851562 141.460938 -112.113281 141.460938 -116.3125 146.183594 C -120.503906 150.910156 -122.078125 144.605469 -119.980469 153.007812 C -117.878906 161.398438 -115.261719 162.976562 -109.488281 165.59375 C -103.71875 168.21875 -107.386719 168.21875 -114.738281 172.941406 C -122.078125 177.660156 -103.195312 184.480469 -81.675781 149.332031 C -81.675781 149.332031 -81.160156 154.578125 -76.957031 156.15625 C -72.757812 157.726562 -63.320312 161.398438 -63.320312 161.398438 C -63.320312 161.398438 -58.597656 164.546875 -55.449219 169.792969 C -52.300781 175.035156 -53.355469 186.585938 -48.105469 191.304688 C -42.855469 196.03125 -29.21875 202.324219 -32.359375 209.144531 C -35.515625 215.964844 -36.042969 233.273438 -24.496094 240.097656 C -12.945312 246.921875 -16.097656 254.265625 -12.425781 262.136719 C -8.753906 270.003906 2.789062 272.105469 5.410156 277.875 C 8.035156 283.648438 10.769531 283.117188 15.691406 286.796875 C 20.625 290.46875 29.023438 289.421875 29.023438 289.421875 C 29.023438 289.421875 32.171875 288.898438 35.84375 296.238281 C 39.511719 303.582031 45.285156 305.160156 45.285156 305.160156 C 45.285156 305.160156 52.628906 319.320312 61.03125 316.171875 C 69.417969 313.023438 61.554688 320.890625 58.929688 331.394531 C 56.304688 341.882812 50.535156 341.359375 56.828125 349.75 C 63.125 358.144531 67.324219 362.347656 68.894531 373.886719 C 70.46875 385.433594 78.867188 383.859375 78.867188 383.859375 C 78.867188 383.859375 80.964844 415.335938 73.089844 428.972656 C 65.226562 442.625 69.941406 460.355469 68.371094 474.625 C 66.800781 488.894531 83.585938 488.894531 83.585938 488.894531 " fill-opacity="1" fill-rule="nonzero"/></g></g></g><g clip-path="url(#f261964d30)"><g clip-path="url(#e40567d321)"><g clip-path="url(#80d63075e4)"><path fill="#000000" d="M 261.449219 421.636719 C 261.449219 421.636719 281.386719 434.222656 290.824219 409.5625 C 300.273438 384.90625 292.925781 372.835938 303.945312 369.167969 C 314.960938 365.496094 303.945312 355.523438 306.570312 343.457031 C 309.195312 331.394531 322.308594 337.6875 326.503906 324.046875 C 330.703125 310.402344 345.390625 297.808594 332.277344 297.285156 C 319.160156 296.761719 327.558594 309.957031 319.683594 302.304688 C 311.8125 294.664062 299.527344 272.628906 299.527344 272.628906 L 297.128906 254.789062 C 297.128906 254.789062 306.589844 267.523438 309.195312 279.972656 C 311.792969 292.421875 321.253906 296.238281 321.253906 296.238281 C 321.253906 296.238281 338.046875 288.898438 340.671875 285.21875 C 343.296875 281.546875 354.308594 267.902344 340.671875 266.332031 C 327.027344 264.757812 313.390625 256.882812 323.878906 252.164062 C 334.375 247.441406 340.148438 260.5625 340.148438 260.5625 C 340.148438 260.5625 346.96875 254.265625 351.160156 260.039062 C 355.363281 265.808594 363.753906 263.707031 367.425781 267.378906 C 371.101562 271.050781 375.296875 281.546875 375.296875 281.546875 C 375.296875 281.546875 377.398438 309.878906 393.664062 311.976562 C 409.925781 314.078125 388.941406 295.1875 398.382812 289.945312 C 407.828125 284.695312 414.652344 276.511719 417.277344 274.832031 C 419.898438 273.152344 415.699219 284.171875 423.566406 289.421875 C 431.4375 294.664062 439.304688 302.304688 439.304688 302.304688 C 439.304688 302.304688 446.128906 300.433594 447.707031 307.253906 C 449.277344 314.078125 457.144531 293.089844 456.621094 290.46875 C 456.097656 287.84375 438.257812 280.5 450.324219 277.875 C 462.390625 275.253906 476.558594 266.855469 482.324219 262.136719 C 488.097656 257.414062 477.605469 232.230469 477.082031 227.507812 C 476.558594 222.789062 488.625 220.164062 487.050781 230.125 C 485.472656 240.097656 492.296875 234.332031 491.25 240.097656 C 490.199219 245.863281 507.511719 240.628906 496.492188 223.3125 C 485.472656 205.992188 505.941406 209.144531 508.035156 211.246094 C 510.136719 213.34375 529.03125 192.351562 519.054688 182.386719 C 509.082031 172.417969 512.238281 168.742188 525.875 164.023438 C 539.515625 159.304688 545.816406 151.433594 545.816406 156.679688 C 545.816406 161.929688 557.882812 150.578125 566.273438 154.945312 C 574.667969 159.304688 546.863281 175.566406 554.210938 189.734375 C 561.546875 203.894531 567.324219 171.890625 572.566406 164.546875 C 577.816406 157.203125 584.117188 159.304688 588.3125 158.78125 C 592.507812 158.25 593.5625 154.054688 601.433594 150.382812 C 609.300781 146.714844 598.28125 137.792969 608.246094 140.410156 C 618.210938 143.035156 622.367188 144.1875 625.539062 139.9375 C 628.710938 135.691406 588.304688 123.101562 581.488281 126.25 C 574.667969 129.398438 550.414062 118.835938 544.703125 115.722656 C 538.988281 112.605469 489.148438 121.527344 486.53125 119.953125 C 483.902344 118.378906 477.089844 107.363281 465.546875 101.0625 C 453.988281 94.765625 456.097656 88.996094 439.304688 91.09375 C 422.519531 93.195312 396.8125 110.511719 389.988281 111.558594 C 383.167969 112.605469 377.914062 104.214844 370.578125 106.3125 C 363.234375 108.410156 362.707031 118.378906 355.886719 118.378906 C 349.066406 118.378906 348.539062 122.050781 331.226562 126.25 C 313.914062 130.445312 302.90625 143.566406 298.179688 141.464844 C 293.46875 139.363281 262.507812 178.191406 257.261719 179.765625 C 252.011719 181.339844 231.023438 186.585938 227.351562 191.835938 C 223.683594 197.078125 225.777344 202.324219 218.433594 200.226562 C 211.089844 198.128906 232.597656 209.667969 213.714844 211.769531 C 194.828125 213.867188 203.742188 222.257812 203.742188 227.507812 C 203.742188 232.761719 223.148438 229.082031 225.769531 228.03125 C 228.394531 226.984375 230.496094 209.667969 238.886719 212.816406 C 247.28125 215.964844 254.628906 214.917969 254.628906 214.917969 C 254.628906 214.917969 261.972656 213.867188 267.21875 218.585938 C 272.460938 223.3125 271.410156 231.703125 275.609375 231.703125 C 279.8125 231.703125 281.90625 229.082031 284.007812 230.65625 C 286.105469 232.230469 304.46875 231.179688 302.375 235.902344 C 300.273438 240.628906 280.851562 247.96875 267.746094 244.292969 C 267.746094 244.292969 264.597656 250.59375 256.199219 244.292969 C 247.804688 237.996094 244.613281 231.703125 246.214844 231.179688 C 247.804688 230.65625 222.09375 234.324219 215.804688 235.378906 C 209.507812 236.425781 208.457031 248.492188 199.542969 255.3125 C 190.617188 262.136719 186.945312 285.742188 189.046875 292.039062 C 191.144531 298.339844 195.335938 302.011719 200.589844 315.125 C 205.835938 328.238281 213.703125 315.125 219.476562 315.648438 C 225.246094 316.171875 239.933594 307.78125 241.507812 317.226562 C 243.082031 326.667969 247.804688 333.488281 249.382812 338.738281 C 250.953125 343.980469 249.382812 352.378906 248.859375 363.917969 C 248.335938 375.460938 257.246094 388.054688 257.777344 392.777344 C 258.300781 397.496094 254.101562 410.09375 261.449219 421.636719 " fill-opacity="1" fill-rule="nonzero"/></g></g></g><g clip-path="url(#236966ba56)"><g clip-path="url(#47673e0dbe)"><g clip-path="url(#ee83469d2b)"><path fill="#000000" d="M 405.90625 424.84375 C 405.90625 424.84375 401.183594 418.554688 384.65625 407.535156 C 368.128906 396.515625 361.832031 407.535156 353.171875 407.535156 C 344.515625 407.535156 335.863281 383.925781 346.875 375.269531 C 357.898438 366.609375 361.832031 372.902344 368.128906 361.101562 C 374.421875 349.292969 380.71875 353.234375 386.226562 355.59375 C 391.738281 357.953125 394.097656 366.609375 399.613281 365.039062 C 405.113281 363.460938 410.625 361.890625 415.34375 371.332031 C 420.070312 380.777344 427.152344 373.480469 427.152344 388.929688 C 427.152344 404.386719 417.710938 424.84375 417.710938 424.84375 L 405.90625 424.84375 " fill-opacity="1" fill-rule="nonzero"/></g></g></g><g fill="#ffffff" fill-opacity="1"><g transform="translate(54.367419, 214.470243)"><g><path d="M 61.34375 -23.78125 C 61.34375 -16.050781 58.554688 -9.957031 52.984375 -5.5 C 47.421875 -1.050781 39.679688 1.171875 29.765625 1.171875 C 20.617188 1.171875 12.53125 -0.546875 5.5 -3.984375 L 5.5 -20.859375 C 11.28125 -18.273438 16.171875 -16.457031 20.171875 -15.40625 C 24.179688 -14.351562 27.847656 -13.828125 31.171875 -13.828125 C 35.148438 -13.828125 38.203125 -14.585938 40.328125 -16.109375 C 42.460938 -17.628906 43.53125 -19.894531 43.53125 -22.90625 C 43.53125 -24.582031 43.0625 -26.078125 42.125 -27.390625 C 41.1875 -28.703125 39.804688 -29.960938 37.984375 -31.171875 C 36.171875 -32.378906 32.472656 -34.3125 26.890625 -36.96875 C 21.660156 -39.425781 17.734375 -41.785156 15.109375 -44.046875 C 12.492188 -46.316406 10.40625 -48.957031 8.84375 -51.96875 C 7.28125 -54.976562 6.5 -58.492188 6.5 -62.515625 C 6.5 -70.085938 9.066406 -76.039062 14.203125 -80.375 C 19.335938 -84.71875 26.4375 -86.890625 35.5 -86.890625 C 39.957031 -86.890625 44.207031 -86.359375 48.25 -85.296875 C 52.289062 -84.242188 56.515625 -82.757812 60.921875 -80.84375 L 55.078125 -66.734375 C 50.503906 -68.609375 46.722656 -69.914062 43.734375 -70.65625 C 40.742188 -71.394531 37.804688 -71.765625 34.921875 -71.765625 C 31.484375 -71.765625 28.84375 -70.960938 27 -69.359375 C 25.164062 -67.765625 24.25 -65.675781 24.25 -63.09375 C 24.25 -61.488281 24.617188 -60.09375 25.359375 -58.90625 C 26.109375 -57.71875 27.289062 -56.566406 28.90625 -55.453125 C 30.53125 -54.335938 34.367188 -52.335938 40.421875 -49.453125 C 48.429688 -45.617188 53.921875 -41.773438 56.890625 -37.921875 C 59.859375 -34.078125 61.34375 -29.363281 61.34375 -23.78125 Z M 61.34375 -23.78125 "/></g></g></g><g fill="#ffffff" fill-opacity="1"><g transform="translate(120.448256, 214.470243)"><g><path d="M 43.828125 0 L 25.65625 0 L 25.65625 -70.53125 L 2.40625 -70.53125 L 2.40625 -85.65625 L 67.078125 -85.65625 L 67.078125 -70.53125 L 43.828125 -70.53125 Z M 43.828125 0 "/></g></g></g><g fill="#ffffff" fill-opacity="1"><g transform="translate(189.926866, 214.470243)"><g><path d="M 63.21875 0 L 57 -20.390625 L 25.78125 -20.390625 L 19.5625 0 L 0 0 L 30.234375 -86 L 52.4375 -86 L 82.78125 0 Z M 52.671875 -35.625 C 46.929688 -54.09375 43.695312 -64.535156 42.96875 -66.953125 C 42.25 -69.378906 41.734375 -71.296875 41.421875 -72.703125 C 40.128906 -67.703125 36.4375 -55.34375 30.34375 -35.625 Z M 52.671875 -35.625 "/></g></g></g><path stroke-linecap="butt" transform="matrix(0.75, -0.000000000000000093, 0.000000000000000093, 0.75, 54.367419, 225.828633)" fill="none" stroke-linejoin="miter" d="M -0.000309107 0.499322 L 397.400759 0.499322 " stroke="#ff3131" stroke-width="1" stroke-opacity="1" stroke-miterlimit="4"/><g clip-path="url(#7154b9ce43)"><path fill="#ff3131" d="M 318.210938 135.246094 L 286.542969 135.246094 C 285.042969 135.246094 283.828125 136.460938 283.828125 137.960938 L 283.828125 213.960938 C 283.828125 215.460938 285.042969 216.675781 286.542969 216.675781 L 349.878906 216.675781 C 351.375 216.675781 352.59375 215.460938 352.59375 213.960938 L 352.59375 175.960938 C 352.59375 174.460938 351.375 173.246094 349.878906 173.246094 C 348.378906 173.246094 347.164062 174.460938 347.164062 175.960938 L 347.164062 211.246094 C 347.164062 211.246094 289.257812 211.246094 289.257812 211.246094 C 289.257812 211.246094 289.257812 140.675781 289.257812 140.675781 C 289.257812 140.675781 318.210938 140.675781 318.210938 140.675781 C 319.707031 140.675781 320.925781 139.457031 320.925781 137.960938 C 320.925781 136.460938 319.707031 135.246094 318.210938 135.246094 Z M 351.148438 154.460938 C 352.210938 153.398438 352.210938 151.679688 351.148438 150.621094 L 343.472656 142.945312 C 342.410156 141.882812 340.691406 141.882812 339.632812 142.945312 L 312.761719 169.8125 C 312.46875 170.109375 312.242188 170.476562 312.109375 170.875 L 308.269531 182.390625 C 307.945312 183.363281 308.199219 184.441406 308.925781 185.167969 C 309.652344 185.894531 310.726562 186.148438 311.703125 185.824219 L 323.21875 181.984375 C 323.617188 181.851562 323.980469 181.628906 324.28125 181.328125 Z M 335.796875 154.460938 L 339.632812 158.296875 L 320.894531 177.039062 C 320.894531 177.039062 315.136719 178.957031 315.136719 178.957031 C 315.136719 178.957031 317.054688 173.199219 317.054688 173.199219 Z M 339.632812 150.621094 L 341.554688 148.699219 L 345.390625 152.539062 L 343.472656 154.460938 Z M 339.632812 150.621094 " fill-opacity="1" fill-rule="evenodd"/></g><g clip-path="url(#05750782ce)"><g clip-path="url(#5cbdb8d278)"><path fill="#1e1e1e" d="M 306.449219 135.601562 L 360.597656 135.601562 L 360.597656 186.75 L 306.449219 186.75 Z M 306.449219 135.601562 " fill-opacity="1" fill-rule="nonzero"/></g></g><g clip-path="url(#e28d660800)"><g clip-path="url(#84b7aa1a41)"><path fill="#000000" d="M 317.398438 132.375 L 363.75 132.375 L 363.75 179.085938 L 317.398438 179.085938 Z M 317.398438 132.375 " fill-opacity="1" fill-rule="nonzero"/></g></g><g clip-path="url(#fd0e7fdc95)"><g clip-path="url(#7abc9192e9)"><path fill="#000000" d="M 298.949219 112.949219 L 375.375 112.949219 L 375.375 208.78125 L 298.949219 208.78125 Z M 298.949219 112.949219 " fill-opacity="1" fill-rule="nonzero"/></g></g><g clip-path="url(#deea829b3a)"><g clip-path="url(#d7705fad65)"><g clip-path="url(#739695be17)"><path fill="#ffffff" d="M 350.960938 153.203125 C 351.371094 153.589844 351.386719 154.242188 350.996094 154.652344 L 348.167969 157.636719 C 347.78125 158.046875 347.128906 158.0625 346.71875 157.671875 L 334.792969 146.359375 C 334.378906 145.972656 334.363281 145.320312 334.753906 144.90625 L 337.582031 141.925781 C 337.96875 141.515625 338.621094 141.5 339.035156 141.886719 Z M 332.308594 162.414062 L 330.816406 161 L 338.59375 152.800781 L 340.085938 154.214844 Z M 331.675781 166.0625 C 331.289062 166.476562 330.636719 166.492188 330.222656 166.101562 L 327.242188 163.273438 C 326.832031 162.886719 326.816406 162.230469 327.203125 161.820312 C 327.59375 161.410156 328.246094 161.394531 328.65625 161.785156 L 331.636719 164.613281 C 332.050781 165 332.066406 165.652344 331.675781 166.0625 Z M 328.847656 169.046875 C 328.460938 169.457031 327.804688 169.472656 327.394531 169.085938 L 324.414062 166.253906 C 324.003906 165.867188 323.988281 165.214844 324.375 164.804688 C 324.765625 164.394531 325.417969 164.375 325.828125 164.765625 L 328.808594 167.59375 C 329.222656 167.984375 329.238281 168.636719 328.847656 169.046875 Z M 326.019531 172.027344 C 325.628906 172.4375 324.976562 172.453125 324.566406 172.066406 L 321.585938 169.238281 C 321.175781 168.847656 321.160156 168.195312 321.546875 167.785156 C 321.9375 167.375 322.589844 167.355469 323 167.746094 L 325.980469 170.574219 C 326.390625 170.964844 326.410156 171.617188 326.019531 172.027344 Z M 323.191406 175.007812 C 322.800781 175.417969 322.148438 175.4375 321.738281 175.046875 L 318.757812 172.21875 C 318.347656 171.828125 318.332031 171.175781 318.71875 170.765625 C 319.109375 170.355469 319.761719 170.339844 320.171875 170.726562 L 323.152344 173.554688 C 323.5625 173.945312 323.582031 174.597656 323.191406 175.007812 Z M 310.3125 182.617188 L 318.089844 174.417969 L 319.578125 175.832031 L 311.800781 184.03125 Z M 315.605469 190.46875 C 316.015625 190.859375 316.035156 191.511719 315.644531 191.921875 L 312.816406 194.902344 C 312.425781 195.3125 311.773438 195.332031 311.363281 194.941406 L 299.4375 183.628906 C 299.027344 183.238281 299.007812 182.585938 299.398438 182.175781 L 302.226562 179.195312 C 302.617188 178.785156 303.269531 178.765625 303.679688 179.15625 Z M 336.089844 140.511719 L 333.261719 143.492188 C 332.089844 144.730469 332.140625 146.679688 333.375 147.851562 L 337.105469 151.386719 L 329.195312 159.722656 C 328.039062 159.210938 326.632812 159.4375 325.714844 160.40625 C 325.167969 160.984375 324.898438 161.714844 324.882812 162.449219 C 324.148438 162.507812 323.433594 162.8125 322.886719 163.390625 C 322.339844 163.964844 322.070312 164.695312 322.054688 165.433594 C 321.320312 165.488281 320.605469 165.792969 320.058594 166.371094 C 319.511719 166.945312 319.242188 167.679688 319.226562 168.414062 C 318.492188 168.46875 317.777344 168.777344 317.230469 169.351562 C 316.308594 170.320312 316.15625 171.738281 316.726562 172.867188 L 308.820312 181.203125 L 305.09375 177.664062 C 303.859375 176.496094 301.90625 176.546875 300.738281 177.78125 L 297.910156 180.761719 C 296.738281 181.996094 296.789062 183.949219 298.023438 185.121094 L 309.949219 196.433594 C 311.183594 197.605469 313.136719 197.550781 314.304688 196.316406 L 317.132812 193.335938 C 318.304688 192.101562 318.253906 190.148438 317.019531 188.980469 L 313.292969 185.445312 L 321.199219 177.109375 C 322.359375 177.621094 323.761719 177.390625 324.683594 176.421875 C 325.230469 175.847656 325.496094 175.117188 325.515625 174.378906 C 326.25 174.324219 326.964844 174.019531 327.511719 173.441406 C 328.058594 172.863281 328.324219 172.132812 328.34375 171.398438 C 329.078125 171.34375 329.792969 171.035156 330.339844 170.460938 C 330.886719 169.882812 331.152344 169.152344 331.171875 168.417969 C 331.90625 168.359375 332.621094 168.054688 333.167969 167.476562 C 334.085938 166.507812 334.238281 165.09375 333.667969 163.964844 L 341.574219 155.628906 L 345.300781 159.164062 C 346.539062 160.335938 348.488281 160.285156 349.660156 159.050781 L 352.488281 156.066406 C 353.660156 154.832031 353.609375 152.882812 352.375 151.710938 L 340.449219 140.398438 C 339.214844 139.226562 337.261719 139.277344 336.089844 140.511719 " fill-opacity="1" fill-rule="nonzero"/></g></g></g><g clip-path="url(#5e9c50c61d)"><g clip-path="url(#3ba6b6a118)"><g clip-path="url(#b896b9c67c)"><path fill="#ffffff" d="M 303.960938 165.449219 C 303.96875 165.617188 304.207031 171.109375 304.207031 171.109375 L 309.933594 171.078125 L 309.988281 170.96875 L 308.515625 169.585938 C 308.105469 169.195312 308.089844 168.542969 308.480469 168.132812 L 314.136719 162.167969 L 312.644531 160.753906 L 306.988281 166.71875 C 306.597656 167.128906 305.945312 167.144531 305.535156 166.757812 L 304.0625 165.359375 Z M 311.441406 172.46875 C 311.066406 172.859375 310.554688 173.105469 309.992188 173.132812 L 304.261719 173.199219 C 303.734375 173.226562 303.191406 173.027344 302.785156 172.640625 C 302.375 172.253906 302.152344 171.726562 302.152344 171.152344 C 302.148438 171.15625 301.910156 165.582031 301.90625 165.503906 C 301.882812 164.640625 302.390625 163.851562 303.191406 163.492188 C 303.988281 163.140625 304.863281 163.285156 305.476562 163.867188 L 306.203125 164.558594 L 311.152344 159.339844 C 311.933594 158.519531 313.238281 158.484375 314.058594 159.265625 L 315.550781 160.679688 C 316.371094 161.457031 316.40625 162.761719 315.625 163.582031 L 310.675781 168.800781 L 311.40625 169.492188 C 312.011719 170.066406 312.207031 170.921875 311.90625 171.722656 C 311.800781 172.007812 311.640625 172.253906 311.441406 172.46875 " fill-opacity="1" fill-rule="nonzero"/></g></g></g><g clip-path="url(#d5fb395097)"><g clip-path="url(#abdd5e1940)"><g clip-path="url(#7a8991f7c1)"><path fill="#ffffff" d="M 323.339844 183.832031 C 323.347656 184 323.585938 189.492188 323.585938 189.492188 L 329.3125 189.460938 L 329.367188 189.351562 L 327.898438 187.96875 C 327.484375 187.578125 327.46875 186.925781 327.859375 186.515625 L 333.515625 180.554688 L 332.023438 179.140625 L 326.367188 185.101562 C 325.976562 185.511719 325.324219 185.53125 324.914062 185.140625 L 323.441406 183.742188 Z M 330.820312 190.851562 C 330.445312 191.246094 329.933594 191.488281 329.371094 191.519531 L 323.644531 191.582031 C 323.113281 191.613281 322.570312 191.414062 322.164062 191.027344 C 321.757812 190.640625 321.53125 190.113281 321.53125 189.535156 C 321.527344 189.539062 321.289062 183.96875 321.285156 183.886719 C 321.261719 183.023438 321.773438 182.238281 322.574219 181.878906 C 323.367188 181.523438 324.242188 181.667969 324.855469 182.25 L 325.585938 182.941406 L 330.535156 177.726562 C 331.3125 176.902344 332.617188 176.871094 333.4375 177.648438 L 334.929688 179.0625 C 335.75 179.839844 335.785156 181.144531 335.003906 181.96875 L 330.054688 187.183594 L 330.785156 187.875 C 331.390625 188.449219 331.585938 189.304688 331.285156 190.105469 C 331.179688 190.390625 331.023438 190.640625 330.820312 190.851562 " fill-opacity="1" fill-rule="nonzero"/></g></g></g><g clip-path="url(#8b14841ed4)"><g clip-path="url(#7d6d10fbd2)"><g clip-path="url(#f1013f39fb)"><path fill="#ffffff" d="M 346.3125 171.453125 C 346.3125 171.453125 346.417969 171.394531 346.417969 171.394531 C 346.410156 171.152344 346.191406 165.714844 346.191406 165.714844 L 340.464844 165.753906 L 340.410156 165.863281 L 341.878906 167.246094 C 342.289062 167.636719 342.308594 168.289062 341.917969 168.699219 L 336.261719 174.660156 L 337.75 176.074219 L 343.410156 170.113281 C 343.796875 169.703125 344.449219 169.683594 344.859375 170.074219 Z M 347.898438 172.839844 C 347.703125 173.042969 347.472656 173.210938 347.207031 173.328125 C 346.421875 173.679688 345.515625 173.527344 344.898438 172.941406 L 344.191406 172.273438 L 339.242188 177.488281 C 338.464844 178.3125 337.160156 178.34375 336.335938 177.566406 L 334.847656 176.152344 C 334.027344 175.375 333.992188 174.066406 334.769531 173.246094 L 339.71875 168.03125 L 338.992188 167.339844 C 338.386719 166.765625 338.191406 165.910156 338.492188 165.109375 C 338.796875 164.292969 339.542969 163.734375 340.40625 163.695312 L 346.132812 163.628906 C 346.664062 163.601562 347.203125 163.800781 347.609375 164.183594 C 348.019531 164.574219 348.242188 165.101562 348.246094 165.679688 C 348.246094 165.671875 348.464844 171.125 348.472656 171.34375 C 348.484375 171.910156 348.273438 172.441406 347.898438 172.839844 " fill-opacity="1" fill-rule="nonzero"/></g></g></g><g clip-path="url(#efa7cd6360)"><g clip-path="url(#547c1a309b)"><g clip-path="url(#6cf573cfd5)"><path fill="#ffffff" d="M 326.941406 153.074219 L 327.042969 153.015625 C 327.039062 152.789062 326.816406 147.335938 326.816406 147.335938 L 321.089844 147.375 L 321.035156 147.484375 L 322.503906 148.867188 C 322.917969 149.257812 322.933594 149.910156 322.542969 150.320312 L 316.886719 156.28125 L 318.378906 157.695312 L 324.035156 151.734375 C 324.425781 151.324219 325.074219 151.304688 325.488281 151.695312 Z M 328.523438 154.460938 C 328.332031 154.664062 328.097656 154.832031 327.832031 154.949219 C 327.046875 155.300781 326.140625 155.148438 325.527344 154.566406 L 324.816406 153.894531 L 319.867188 159.109375 C 319.089844 159.933594 317.785156 159.964844 316.964844 159.1875 L 315.472656 157.773438 C 314.652344 156.996094 314.617188 155.691406 315.398438 154.867188 L 320.347656 149.652344 L 319.617188 148.960938 C 319.011719 148.386719 318.816406 147.53125 319.117188 146.730469 C 319.417969 145.910156 320.171875 145.359375 321.03125 145.316406 L 326.757812 145.253906 C 327.289062 145.222656 327.832031 145.421875 328.238281 145.808594 C 328.644531 146.195312 328.871094 146.722656 328.871094 147.292969 C 328.871094 147.292969 329.089844 152.742188 329.097656 152.964844 C 329.113281 153.527344 328.898438 154.0625 328.523438 154.460938 " fill-opacity="1" fill-rule="nonzero"/></g></g></g><g fill="#ffffff" fill-opacity="1"><g transform="translate(63.461169, 257.767557)"><g><path d="M 12.984375 0 L 7.296875 -18.546875 L 7.140625 -18.546875 C 7.347656 -14.773438 7.453125 -12.257812 7.453125 -11 L 7.453125 0 L 2.96875 0 L 2.96875 -23.640625 L 9.796875 -23.640625 L 15.390625 -5.5625 L 15.484375 -5.5625 L 21.421875 -23.640625 L 28.25 -23.640625 L 28.25 0 L 23.578125 0 L 23.578125 -11.1875 C 23.578125 -11.71875 23.582031 -12.328125 23.59375 -13.015625 C 23.613281 -13.703125 23.6875 -15.535156 23.8125 -18.515625 L 23.671875 -18.515625 L 17.578125 0 Z M 12.984375 0 "/></g></g></g><g fill="#ffffff" fill-opacity="1"><g transform="translate(94.664307, 257.767557)"><g><path d="M 16.59375 0 L 2.96875 0 L 2.96875 -23.640625 L 16.59375 -23.640625 L 16.59375 -19.53125 L 7.984375 -19.53125 L 7.984375 -14.34375 L 15.984375 -14.34375 L 15.984375 -10.234375 L 7.984375 -10.234375 L 7.984375 -4.140625 L 16.59375 -4.140625 Z M 16.59375 0 "/></g></g></g><g fill="#ffffff" fill-opacity="1"><g transform="translate(113.198744, 257.767557)"><g><path d="M 12.09375 0 L 7.078125 0 L 7.078125 -19.46875 L 0.65625 -19.46875 L 0.65625 -23.640625 L 18.515625 -23.640625 L 18.515625 -19.46875 L 12.09375 -19.46875 Z M 12.09375 0 "/></g></g></g><g fill="#ffffff" fill-opacity="1"><g transform="translate(132.363385, 257.767557)"><g><path d="M 22.34375 0 L 17.34375 0 L 17.34375 -10.203125 L 7.984375 -10.203125 L 7.984375 0 L 2.96875 0 L 2.96875 -23.640625 L 7.984375 -23.640625 L 7.984375 -14.375 L 17.34375 -14.375 L 17.34375 -23.640625 L 22.34375 -23.640625 Z M 22.34375 0 "/></g></g></g><g fill="#ffffff" fill-opacity="1"><g transform="translate(157.684627, 257.767557)"><g><path d="M 24.421875 -11.84375 C 24.421875 -7.9375 23.453125 -4.929688 21.515625 -2.828125 C 19.578125 -0.722656 16.796875 0.328125 13.171875 0.328125 C 9.554688 0.328125 6.773438 -0.722656 4.828125 -2.828125 C 2.890625 -4.929688 1.921875 -7.945312 1.921875 -11.875 C 1.921875 -15.8125 2.894531 -18.816406 4.84375 -20.890625 C 6.789062 -22.960938 9.578125 -24 13.203125 -24 C 16.835938 -24 19.613281 -22.953125 21.53125 -20.859375 C 23.457031 -18.773438 24.421875 -15.769531 24.421875 -11.84375 Z M 7.171875 -11.84375 C 7.171875 -9.207031 7.671875 -7.21875 8.671875 -5.875 C 9.679688 -4.539062 11.179688 -3.875 13.171875 -3.875 C 17.171875 -3.875 19.171875 -6.53125 19.171875 -11.84375 C 19.171875 -17.175781 17.179688 -19.84375 13.203125 -19.84375 C 11.210938 -19.84375 9.707031 -19.171875 8.6875 -17.828125 C 7.675781 -16.484375 7.171875 -14.488281 7.171875 -11.84375 Z M 7.171875 -11.84375 "/></g></g></g><g fill="#ffffff" fill-opacity="1"><g transform="translate(184.02389, 257.767557)"><g><path d="M 22.578125 -12.046875 C 22.578125 -8.148438 21.46875 -5.164062 19.25 -3.09375 C 17.039062 -1.03125 13.847656 0 9.671875 0 L 2.96875 0 L 2.96875 -23.640625 L 10.390625 -23.640625 C 14.253906 -23.640625 17.25 -22.617188 19.375 -20.578125 C 21.507812 -18.546875 22.578125 -15.703125 22.578125 -12.046875 Z M 17.375 -11.921875 C 17.375 -16.992188 15.132812 -19.53125 10.65625 -19.53125 L 7.984375 -19.53125 L 7.984375 -4.140625 L 10.140625 -4.140625 C 14.960938 -4.140625 17.375 -6.734375 17.375 -11.921875 Z M 17.375 -11.921875 "/></g></g></g><g fill="#ffffff" fill-opacity="1"><g transform="translate(208.521019, 257.767557)"><g><path d="M 24.421875 -11.84375 C 24.421875 -7.9375 23.453125 -4.929688 21.515625 -2.828125 C 19.578125 -0.722656 16.796875 0.328125 13.171875 0.328125 C 9.554688 0.328125 6.773438 -0.722656 4.828125 -2.828125 C 2.890625 -4.929688 1.921875 -7.945312 1.921875 -11.875 C 1.921875 -15.8125 2.894531 -18.816406 4.84375 -20.890625 C 6.789062 -22.960938 9.578125 -24 13.203125 -24 C 16.835938 -24 19.613281 -22.953125 21.53125 -20.859375 C 23.457031 -18.773438 24.421875 -15.769531 24.421875 -11.84375 Z M 7.171875 -11.84375 C 7.171875 -9.207031 7.671875 -7.21875 8.671875 -5.875 C 9.679688 -4.539062 11.179688 -3.875 13.171875 -3.875 C 17.171875 -3.875 19.171875 -6.53125 19.171875 -11.84375 C 19.171875 -17.175781 17.179688 -19.84375 13.203125 -19.84375 C 11.210938 -19.84375 9.707031 -19.171875 8.6875 -17.828125 C 7.675781 -16.484375 7.171875 -14.488281 7.171875 -11.84375 Z M 7.171875 -11.84375 "/></g></g></g><g fill="#ffffff" fill-opacity="1"><g transform="translate(234.860282, 257.767557)"><g><path d="M 2.96875 0 L 2.96875 -23.640625 L 7.984375 -23.640625 L 7.984375 -4.140625 L 17.578125 -4.140625 L 17.578125 0 Z M 2.96875 0 "/></g></g></g><g fill="#ffffff" fill-opacity="1"><g transform="translate(253.556311, 257.767557)"><g><path d="M 24.421875 -11.84375 C 24.421875 -7.9375 23.453125 -4.929688 21.515625 -2.828125 C 19.578125 -0.722656 16.796875 0.328125 13.171875 0.328125 C 9.554688 0.328125 6.773438 -0.722656 4.828125 -2.828125 C 2.890625 -4.929688 1.921875 -7.945312 1.921875 -11.875 C 1.921875 -15.8125 2.894531 -18.816406 4.84375 -20.890625 C 6.789062 -22.960938 9.578125 -24 13.203125 -24 C 16.835938 -24 19.613281 -22.953125 21.53125 -20.859375 C 23.457031 -18.773438 24.421875 -15.769531 24.421875 -11.84375 Z M 7.171875 -11.84375 C 7.171875 -9.207031 7.671875 -7.21875 8.671875 -5.875 C 9.679688 -4.539062 11.179688 -3.875 13.171875 -3.875 C 17.171875 -3.875 19.171875 -6.53125 19.171875 -11.84375 C 19.171875 -17.175781 17.179688 -19.84375 13.203125 -19.84375 C 11.210938 -19.84375 9.707031 -19.171875 8.6875 -17.828125 C 7.675781 -16.484375 7.171875 -14.488281 7.171875 -11.84375 Z M 7.171875 -11.84375 "/></g></g></g><g fill="#ffffff" fill-opacity="1"><g transform="translate(279.895573, 257.767557)"><g><path d="M 11.953125 -13.265625 L 21.328125 -13.265625 L 21.328125 -1.015625 C 19.804688 -0.523438 18.375 -0.179688 17.03125 0.015625 C 15.6875 0.222656 14.316406 0.328125 12.921875 0.328125 C 9.347656 0.328125 6.617188 -0.71875 4.734375 -2.8125 C 2.859375 -4.914062 1.921875 -7.925781 1.921875 -11.84375 C 1.921875 -15.664062 3.007812 -18.640625 5.1875 -20.765625 C 7.375 -22.898438 10.40625 -23.96875 14.28125 -23.96875 C 16.695312 -23.96875 19.035156 -23.484375 21.296875 -22.515625 L 19.625 -18.515625 C 17.90625 -19.367188 16.113281 -19.796875 14.25 -19.796875 C 12.082031 -19.796875 10.34375 -19.066406 9.03125 -17.609375 C 7.726562 -16.160156 7.078125 -14.207031 7.078125 -11.75 C 7.078125 -9.1875 7.601562 -7.226562 8.65625 -5.875 C 9.707031 -4.519531 11.234375 -3.84375 13.234375 -3.84375 C 14.285156 -3.84375 15.347656 -3.953125 16.421875 -4.171875 L 16.421875 -9.109375 L 11.953125 -9.109375 Z M 11.953125 -13.265625 "/></g></g></g><g fill="#ffffff" fill-opacity="1"><g transform="translate(303.859454, 257.767557)"><g><path d="M 2.96875 0 L 2.96875 -23.640625 L 7.984375 -23.640625 L 7.984375 0 Z M 2.96875 0 "/></g></g></g><g fill="#ffffff" fill-opacity="1"><g transform="translate(314.815294, 257.767557)"><g><path d="M 16.59375 0 L 2.96875 0 L 2.96875 -23.640625 L 16.59375 -23.640625 L 16.59375 -19.53125 L 7.984375 -19.53125 L 7.984375 -14.34375 L 15.984375 -14.34375 L 15.984375 -10.234375 L 7.984375 -10.234375 L 7.984375 -4.140625 L 16.59375 -4.140625 Z M 16.59375 0 "/></g></g></g><g fill="#ffffff" fill-opacity="1"><g transform="translate(333.349732, 257.767557)"><g><path d="M 16.921875 -6.5625 C 16.921875 -4.425781 16.148438 -2.742188 14.609375 -1.515625 C 13.078125 -0.285156 10.945312 0.328125 8.21875 0.328125 C 5.6875 0.328125 3.453125 -0.144531 1.515625 -1.09375 L 1.515625 -5.75 C 3.109375 -5.039062 4.457031 -4.539062 5.5625 -4.25 C 6.664062 -3.957031 7.675781 -3.8125 8.59375 -3.8125 C 9.695312 -3.8125 10.539062 -4.019531 11.125 -4.4375 C 11.71875 -4.863281 12.015625 -5.492188 12.015625 -6.328125 C 12.015625 -6.785156 11.882812 -7.191406 11.625 -7.546875 C 11.363281 -7.910156 10.984375 -8.257812 10.484375 -8.59375 C 9.984375 -8.9375 8.960938 -9.472656 7.421875 -10.203125 C 5.972656 -10.878906 4.890625 -11.53125 4.171875 -12.15625 C 3.453125 -12.78125 2.875 -13.503906 2.4375 -14.328125 C 2.007812 -15.160156 1.796875 -16.132812 1.796875 -17.25 C 1.796875 -19.34375 2.503906 -20.984375 3.921875 -22.171875 C 5.335938 -23.367188 7.296875 -23.96875 9.796875 -23.96875 C 11.023438 -23.96875 12.195312 -23.820312 13.3125 -23.53125 C 14.425781 -23.25 15.59375 -22.84375 16.8125 -22.3125 L 15.203125 -18.40625 C 13.941406 -18.925781 12.894531 -19.285156 12.0625 -19.484375 C 11.238281 -19.691406 10.429688 -19.796875 9.640625 -19.796875 C 8.691406 -19.796875 7.960938 -19.578125 7.453125 -19.140625 C 6.941406 -18.703125 6.6875 -18.125 6.6875 -17.40625 C 6.6875 -16.96875 6.789062 -16.582031 7 -16.25 C 7.207031 -15.925781 7.535156 -15.609375 7.984375 -15.296875 C 8.429688 -14.992188 9.488281 -14.441406 11.15625 -13.640625 C 13.363281 -12.585938 14.875 -11.53125 15.6875 -10.46875 C 16.507812 -9.40625 16.921875 -8.101562 16.921875 -6.5625 Z M 16.921875 -6.5625 "/></g></g></g><g clip-path="url(#761f8c2ce1)"><g clip-path="url(#fe697d5d3e)"><path fill="#000000" d="M 297.449219 140.625 L 333.75 140.625 L 333.75 177.632812 L 297.449219 177.632812 Z M 297.449219 140.625 " fill-opacity="1" fill-rule="nonzero"/></g></g><g clip-path="url(#39b9c205cd)"><g clip-path="url(#41d1962039)"><path fill="#000000" d="M 317.398438 173.699219 L 341.699219 173.699219 L 341.699219 202.082031 L 317.398438 202.082031 Z M 317.398438 173.699219 " fill-opacity="1" fill-rule="nonzero"/></g></g></svg>